<mxfile host="app.diagrams.net" modified="2023-06-29T11:01:53.484Z" agent="Mozilla/5.0 (Windows NT 10.0; Win64; x64) AppleWebKit/537.36 (KHTML, like Gecko) Chrome/114.0.0.0 Safari/537.36 Edg/114.0.1823.58" etag="t-683kNFbmYwXT3bJpoh" version="21.5.0" type="device" pages="3">
  <diagram name="Page-1" id="V3WznT-5KaZ9-lwerQ7A">
    <mxGraphModel dx="1259" dy="701" grid="1" gridSize="10" guides="1" tooltips="1" connect="1" arrows="1" fold="1" page="1" pageScale="1" pageWidth="827" pageHeight="1169" math="0" shadow="0">
      <root>
        <mxCell id="0" />
        <mxCell id="1" parent="0" />
        <mxCell id="03DhXbHCtmCu_sxHWPTh-43" value="" style="ellipse;shape=cloud;whiteSpace=wrap;html=1;strokeWidth=2;" parent="1" vertex="1">
          <mxGeometry x="94" y="186" width="430" height="185" as="geometry" />
        </mxCell>
        <mxCell id="03DhXbHCtmCu_sxHWPTh-3" value="" style="whiteSpace=wrap;html=1;aspect=fixed;strokeWidth=2;" parent="1" vertex="1">
          <mxGeometry x="24" y="471" width="170" height="170" as="geometry" />
        </mxCell>
        <mxCell id="03DhXbHCtmCu_sxHWPTh-1" value="" style="shape=image;html=1;verticalAlign=top;verticalLabelPosition=bottom;labelBackgroundColor=#ffffff;imageAspect=0;aspect=fixed;image=https://cdn2.iconfinder.com/data/icons/seo-flat-6/128/03_Landing_Page_Optimization-128.png" parent="1" vertex="1">
          <mxGeometry x="45" y="721" width="130" height="130" as="geometry" />
        </mxCell>
        <mxCell id="03DhXbHCtmCu_sxHWPTh-2" value="" style="sketch=0;html=1;dashed=0;whitespace=wrap;fillColor=#2875E2;strokeColor=#ffffff;points=[[0.005,0.63,0],[0.1,0.2,0],[0.9,0.2,0],[0.5,0,0],[0.995,0.63,0],[0.72,0.99,0],[0.5,1,0],[0.28,0.99,0]];verticalLabelPosition=bottom;align=center;verticalAlign=top;shape=mxgraph.kubernetes.icon;prIcon=user" parent="1" vertex="1">
          <mxGeometry x="85" y="551" width="50" height="48" as="geometry" />
        </mxCell>
        <mxCell id="03DhXbHCtmCu_sxHWPTh-4" value="&lt;b&gt;&lt;font style=&quot;font-size: 14px;&quot; face=&quot;Times New Roman&quot;&gt;User&lt;/font&gt;&lt;/b&gt;" style="text;html=1;align=center;verticalAlign=middle;resizable=0;points=[];autosize=1;strokeColor=none;fillColor=none;" parent="1" vertex="1">
          <mxGeometry x="84" y="599" width="50" height="30" as="geometry" />
        </mxCell>
        <mxCell id="03DhXbHCtmCu_sxHWPTh-5" value="&lt;font size=&quot;1&quot; face=&quot;Times New Roman&quot;&gt;&lt;b style=&quot;font-size: 14px;&quot;&gt;Encryption&lt;/b&gt;&lt;/font&gt;" style="ellipse;shape=cloud;whiteSpace=wrap;html=1;" parent="1" vertex="1">
          <mxGeometry x="28" y="491" width="130" height="40" as="geometry" />
        </mxCell>
        <mxCell id="03DhXbHCtmCu_sxHWPTh-6" value="&lt;font size=&quot;1&quot; face=&quot;Times New Roman&quot;&gt;&lt;b style=&quot;font-size: 14px;&quot;&gt;DNS Resolver&lt;/b&gt;&lt;/font&gt;" style="ellipse;shape=cloud;whiteSpace=wrap;html=1;" parent="1" vertex="1">
          <mxGeometry x="153" y="256" width="120" height="60" as="geometry" />
        </mxCell>
        <mxCell id="03DhXbHCtmCu_sxHWPTh-20" value="" style="group;strokeWidth=1;" parent="1" vertex="1" connectable="0">
          <mxGeometry x="559" y="81" width="225" height="240" as="geometry" />
        </mxCell>
        <mxCell id="03DhXbHCtmCu_sxHWPTh-9" value="" style="whiteSpace=wrap;html=1;aspect=fixed;" parent="03DhXbHCtmCu_sxHWPTh-20" vertex="1">
          <mxGeometry width="225" height="225" as="geometry" />
        </mxCell>
        <mxCell id="03DhXbHCtmCu_sxHWPTh-11" value="&lt;font size=&quot;1&quot; face=&quot;Times New Roman&quot;&gt;&lt;b style=&quot;font-size: 14px;&quot;&gt;ZSK&lt;/b&gt;&lt;/font&gt;" style="ellipse;whiteSpace=wrap;html=1;" parent="03DhXbHCtmCu_sxHWPTh-20" vertex="1">
          <mxGeometry x="4.5" y="76.8" width="36" height="28.799999999999997" as="geometry" />
        </mxCell>
        <mxCell id="03DhXbHCtmCu_sxHWPTh-12" value="&lt;font size=&quot;1&quot; face=&quot;Times New Roman&quot;&gt;&lt;b style=&quot;font-size: 14px;&quot;&gt;KSK&lt;/b&gt;&lt;/font&gt;" style="ellipse;whiteSpace=wrap;html=1;" parent="03DhXbHCtmCu_sxHWPTh-20" vertex="1">
          <mxGeometry x="4.5" y="182.4" width="36" height="28.799999999999997" as="geometry" />
        </mxCell>
        <mxCell id="03DhXbHCtmCu_sxHWPTh-13" value="" style="curved=1;endArrow=classic;html=1;rounded=0;exitX=1;exitY=0.5;exitDx=0;exitDy=0;entryX=0.7;entryY=1.133;entryDx=0;entryDy=0;entryPerimeter=0;" parent="03DhXbHCtmCu_sxHWPTh-20" source="03DhXbHCtmCu_sxHWPTh-12" target="03DhXbHCtmCu_sxHWPTh-11" edge="1">
          <mxGeometry width="50" height="50" relative="1" as="geometry">
            <mxPoint x="49.5" y="201.6" as="sourcePoint" />
            <mxPoint x="94.5" y="153.6" as="targetPoint" />
            <Array as="points">
              <mxPoint x="58.5" y="163.2" />
            </Array>
          </mxGeometry>
        </mxCell>
        <mxCell id="03DhXbHCtmCu_sxHWPTh-15" value="p&lt;sup style=&quot;--tw-border-spacing-x: 0; --tw-border-spacing-y: 0; --tw-translate-x: 0; --tw-translate-y: 0; --tw-rotate: 0; --tw-skew-x: 0; --tw-skew-y: 0; --tw-scale-x: 1; --tw-scale-y: 1; --tw-pan-x: ; --tw-pan-y: ; --tw-pinch-zoom: ; --tw-scroll-snap-strictness: proximity; --tw-ordinal: ; --tw-slashed-zero: ; --tw-numeric-figure: ; --tw-numeric-spacing: ; --tw-numeric-fraction: ; --tw-ring-inset: ; --tw-ring-offset-width: 0px; --tw-ring-offset-color: #fff; --tw-ring-color: rgb(59 130 246 / 0.5); --tw-ring-offset-shadow: 0 0 #0000; --tw-ring-shadow: 0 0 #0000; --tw-shadow: 0 0 #0000; --tw-shadow-colored: 0 0 #0000; --tw-blur: ; --tw-brightness: ; --tw-contrast: ; --tw-grayscale: ; --tw-hue-rotate: ; --tw-invert: ; --tw-saturate: ; --tw-sepia: ; --tw-drop-shadow: ; --tw-backdrop-blur: ; --tw-backdrop-brightness: ; --tw-backdrop-contrast: ; --tw-backdrop-grayscale: ; --tw-backdrop-hue-rotate: ; --tw-backdrop-invert: ; --tw-backdrop-opacity: ; --tw-backdrop-saturate: ; --tw-backdrop-sepia: ; font-family: &amp;quot;Times New Roman&amp;quot;; font-weight: 700; font-size: 14px;&quot;&gt;k&amp;nbsp;&lt;/sup&gt;&lt;span style=&quot;font-family: &amp;quot;Times New Roman&amp;quot;; font-size: 14px; font-weight: 700;&quot;&gt;signs ZSK&#39;s P&lt;/span&gt;&lt;sup style=&quot;--tw-border-spacing-x: 0; --tw-border-spacing-y: 0; --tw-translate-x: 0; --tw-translate-y: 0; --tw-rotate: 0; --tw-skew-x: 0; --tw-skew-y: 0; --tw-scale-x: 1; --tw-scale-y: 1; --tw-pan-x: ; --tw-pan-y: ; --tw-pinch-zoom: ; --tw-scroll-snap-strictness: proximity; --tw-ordinal: ; --tw-slashed-zero: ; --tw-numeric-figure: ; --tw-numeric-spacing: ; --tw-numeric-fraction: ; --tw-ring-inset: ; --tw-ring-offset-width: 0px; --tw-ring-offset-color: #fff; --tw-ring-color: rgb(59 130 246 / 0.5); --tw-ring-offset-shadow: 0 0 #0000; --tw-ring-shadow: 0 0 #0000; --tw-shadow: 0 0 #0000; --tw-shadow-colored: 0 0 #0000; --tw-blur: ; --tw-brightness: ; --tw-contrast: ; --tw-grayscale: ; --tw-hue-rotate: ; --tw-invert: ; --tw-saturate: ; --tw-sepia: ; --tw-drop-shadow: ; --tw-backdrop-blur: ; --tw-backdrop-brightness: ; --tw-backdrop-contrast: ; --tw-backdrop-grayscale: ; --tw-backdrop-hue-rotate: ; --tw-backdrop-invert: ; --tw-backdrop-opacity: ; --tw-backdrop-saturate: ; --tw-backdrop-sepia: ; font-family: &amp;quot;Times New Roman&amp;quot;; font-weight: 700; font-size: 14px;&quot;&gt;u&amp;nbsp;&lt;/sup&gt;" style="edgeLabel;html=1;align=center;verticalAlign=middle;resizable=0;points=[];labelBackgroundColor=none;" parent="03DhXbHCtmCu_sxHWPTh-13" vertex="1" connectable="0">
          <mxGeometry x="0.0259" y="6" relative="1" as="geometry">
            <mxPoint x="12" as="offset" />
          </mxGeometry>
        </mxCell>
        <mxCell id="03DhXbHCtmCu_sxHWPTh-16" value="" style="curved=1;endArrow=classic;html=1;rounded=0;exitX=0.08;exitY=0.587;exitDx=0;exitDy=0;entryX=1;entryY=0.5;entryDx=0;entryDy=0;exitPerimeter=0;" parent="03DhXbHCtmCu_sxHWPTh-20" source="03DhXbHCtmCu_sxHWPTh-19" target="03DhXbHCtmCu_sxHWPTh-11" edge="1">
          <mxGeometry width="50" height="50" relative="1" as="geometry">
            <mxPoint x="105.3" y="116.16" as="sourcePoint" />
            <mxPoint x="94.5" y="28.799999999999997" as="targetPoint" />
            <Array as="points">
              <mxPoint x="85.5" y="38.4" />
            </Array>
          </mxGeometry>
        </mxCell>
        <mxCell id="03DhXbHCtmCu_sxHWPTh-17" value="p&lt;sup style=&quot;--tw-border-spacing-x: 0; --tw-border-spacing-y: 0; --tw-translate-x: 0; --tw-translate-y: 0; --tw-rotate: 0; --tw-skew-x: 0; --tw-skew-y: 0; --tw-scale-x: 1; --tw-scale-y: 1; --tw-pan-x: ; --tw-pan-y: ; --tw-pinch-zoom: ; --tw-scroll-snap-strictness: proximity; --tw-ordinal: ; --tw-slashed-zero: ; --tw-numeric-figure: ; --tw-numeric-spacing: ; --tw-numeric-fraction: ; --tw-ring-inset: ; --tw-ring-offset-width: 0px; --tw-ring-offset-color: #fff; --tw-ring-color: rgb(59 130 246 / 0.5); --tw-ring-offset-shadow: 0 0 #0000; --tw-ring-shadow: 0 0 #0000; --tw-shadow: 0 0 #0000; --tw-shadow-colored: 0 0 #0000; --tw-blur: ; --tw-brightness: ; --tw-contrast: ; --tw-grayscale: ; --tw-hue-rotate: ; --tw-invert: ; --tw-saturate: ; --tw-sepia: ; --tw-drop-shadow: ; --tw-backdrop-blur: ; --tw-backdrop-brightness: ; --tw-backdrop-contrast: ; --tw-backdrop-grayscale: ; --tw-backdrop-hue-rotate: ; --tw-backdrop-invert: ; --tw-backdrop-opacity: ; --tw-backdrop-saturate: ; --tw-backdrop-sepia: ; font-family: &amp;quot;Times New Roman&amp;quot;; font-weight: 700; font-size: 14px;&quot;&gt;k&amp;nbsp;&lt;/sup&gt;&lt;span style=&quot;font-family: &amp;quot;Times New Roman&amp;quot;; font-size: 14px; font-weight: 700;&quot;&gt;signs DNS record&lt;/span&gt;&lt;sup style=&quot;--tw-border-spacing-x: 0; --tw-border-spacing-y: 0; --tw-translate-x: 0; --tw-translate-y: 0; --tw-rotate: 0; --tw-skew-x: 0; --tw-skew-y: 0; --tw-scale-x: 1; --tw-scale-y: 1; --tw-pan-x: ; --tw-pan-y: ; --tw-pinch-zoom: ; --tw-scroll-snap-strictness: proximity; --tw-ordinal: ; --tw-slashed-zero: ; --tw-numeric-figure: ; --tw-numeric-spacing: ; --tw-numeric-fraction: ; --tw-ring-inset: ; --tw-ring-offset-width: 0px; --tw-ring-offset-color: #fff; --tw-ring-color: rgb(59 130 246 / 0.5); --tw-ring-offset-shadow: 0 0 #0000; --tw-ring-shadow: 0 0 #0000; --tw-shadow: 0 0 #0000; --tw-shadow-colored: 0 0 #0000; --tw-blur: ; --tw-brightness: ; --tw-contrast: ; --tw-grayscale: ; --tw-hue-rotate: ; --tw-invert: ; --tw-saturate: ; --tw-sepia: ; --tw-drop-shadow: ; --tw-backdrop-blur: ; --tw-backdrop-brightness: ; --tw-backdrop-contrast: ; --tw-backdrop-grayscale: ; --tw-backdrop-hue-rotate: ; --tw-backdrop-invert: ; --tw-backdrop-opacity: ; --tw-backdrop-saturate: ; --tw-backdrop-sepia: ; font-family: &amp;quot;Times New Roman&amp;quot;; font-weight: 700; font-size: 14px;&quot;&gt;&amp;nbsp;&lt;/sup&gt;" style="edgeLabel;html=1;align=center;verticalAlign=middle;resizable=0;points=[];labelBackgroundColor=none;" parent="03DhXbHCtmCu_sxHWPTh-16" vertex="1" connectable="0">
          <mxGeometry x="0.0259" y="6" relative="1" as="geometry">
            <mxPoint x="-7" y="4" as="offset" />
          </mxGeometry>
        </mxCell>
        <mxCell id="03DhXbHCtmCu_sxHWPTh-19" value="ROOT&lt;br&gt;NS" style="ellipse;shape=cloud;whiteSpace=wrap;html=1;" parent="03DhXbHCtmCu_sxHWPTh-20" vertex="1">
          <mxGeometry x="130.5" y="67.2" width="63" height="48" as="geometry" />
        </mxCell>
        <mxCell id="03DhXbHCtmCu_sxHWPTh-91" value="Zone A" style="text;html=1;align=center;verticalAlign=middle;resizable=0;points=[];autosize=1;strokeColor=none;fillColor=none;fontStyle=5;fontFamily=Times New Roman;fontSize=13;" parent="03DhXbHCtmCu_sxHWPTh-20" vertex="1">
          <mxGeometry x="85" width="60" height="30" as="geometry" />
        </mxCell>
        <mxCell id="03DhXbHCtmCu_sxHWPTh-30" value="" style="group;strokeWidth=2;" parent="1" vertex="1" connectable="0">
          <mxGeometry x="554" y="711" width="230" height="230" as="geometry" />
        </mxCell>
        <mxCell id="03DhXbHCtmCu_sxHWPTh-31" value="" style="whiteSpace=wrap;html=1;aspect=fixed;" parent="03DhXbHCtmCu_sxHWPTh-30" vertex="1">
          <mxGeometry width="230" height="230" as="geometry" />
        </mxCell>
        <mxCell id="03DhXbHCtmCu_sxHWPTh-32" value="&lt;font size=&quot;1&quot; face=&quot;Times New Roman&quot;&gt;&lt;b style=&quot;font-size: 14px;&quot;&gt;ZSK&lt;/b&gt;&lt;/font&gt;" style="ellipse;whiteSpace=wrap;html=1;" parent="03DhXbHCtmCu_sxHWPTh-30" vertex="1">
          <mxGeometry x="4.6000000000000005" y="73.60000000000001" width="36.800000000000004" height="27.599999999999998" as="geometry" />
        </mxCell>
        <mxCell id="03DhXbHCtmCu_sxHWPTh-33" value="&lt;font size=&quot;1&quot; face=&quot;Times New Roman&quot;&gt;&lt;b style=&quot;font-size: 14px;&quot;&gt;KSK&lt;/b&gt;&lt;/font&gt;" style="ellipse;whiteSpace=wrap;html=1;" parent="03DhXbHCtmCu_sxHWPTh-30" vertex="1">
          <mxGeometry x="4.6000000000000005" y="174.79999999999998" width="36.800000000000004" height="27.599999999999998" as="geometry" />
        </mxCell>
        <mxCell id="03DhXbHCtmCu_sxHWPTh-34" value="" style="curved=1;endArrow=classic;html=1;rounded=0;exitX=1;exitY=0.5;exitDx=0;exitDy=0;entryX=0.7;entryY=1.133;entryDx=0;entryDy=0;entryPerimeter=0;" parent="03DhXbHCtmCu_sxHWPTh-30" source="03DhXbHCtmCu_sxHWPTh-33" target="03DhXbHCtmCu_sxHWPTh-32" edge="1">
          <mxGeometry width="50" height="50" relative="1" as="geometry">
            <mxPoint x="50.599999999999994" y="193.20000000000002" as="sourcePoint" />
            <mxPoint x="96.60000000000001" y="147.20000000000002" as="targetPoint" />
            <Array as="points">
              <mxPoint x="59.8" y="156.39999999999998" />
            </Array>
          </mxGeometry>
        </mxCell>
        <mxCell id="03DhXbHCtmCu_sxHWPTh-35" value="p&lt;sup style=&quot;--tw-border-spacing-x: 0; --tw-border-spacing-y: 0; --tw-translate-x: 0; --tw-translate-y: 0; --tw-rotate: 0; --tw-skew-x: 0; --tw-skew-y: 0; --tw-scale-x: 1; --tw-scale-y: 1; --tw-pan-x: ; --tw-pan-y: ; --tw-pinch-zoom: ; --tw-scroll-snap-strictness: proximity; --tw-ordinal: ; --tw-slashed-zero: ; --tw-numeric-figure: ; --tw-numeric-spacing: ; --tw-numeric-fraction: ; --tw-ring-inset: ; --tw-ring-offset-width: 0px; --tw-ring-offset-color: #fff; --tw-ring-color: rgb(59 130 246 / 0.5); --tw-ring-offset-shadow: 0 0 #0000; --tw-ring-shadow: 0 0 #0000; --tw-shadow: 0 0 #0000; --tw-shadow-colored: 0 0 #0000; --tw-blur: ; --tw-brightness: ; --tw-contrast: ; --tw-grayscale: ; --tw-hue-rotate: ; --tw-invert: ; --tw-saturate: ; --tw-sepia: ; --tw-drop-shadow: ; --tw-backdrop-blur: ; --tw-backdrop-brightness: ; --tw-backdrop-contrast: ; --tw-backdrop-grayscale: ; --tw-backdrop-hue-rotate: ; --tw-backdrop-invert: ; --tw-backdrop-opacity: ; --tw-backdrop-saturate: ; --tw-backdrop-sepia: ; font-family: &amp;quot;Times New Roman&amp;quot;; font-weight: 700; font-size: 14px;&quot;&gt;k&amp;nbsp;&lt;/sup&gt;&lt;span style=&quot;font-family: &amp;quot;Times New Roman&amp;quot;; font-size: 14px; font-weight: 700;&quot;&gt;signs ZSK&#39;s P&lt;/span&gt;&lt;sup style=&quot;--tw-border-spacing-x: 0; --tw-border-spacing-y: 0; --tw-translate-x: 0; --tw-translate-y: 0; --tw-rotate: 0; --tw-skew-x: 0; --tw-skew-y: 0; --tw-scale-x: 1; --tw-scale-y: 1; --tw-pan-x: ; --tw-pan-y: ; --tw-pinch-zoom: ; --tw-scroll-snap-strictness: proximity; --tw-ordinal: ; --tw-slashed-zero: ; --tw-numeric-figure: ; --tw-numeric-spacing: ; --tw-numeric-fraction: ; --tw-ring-inset: ; --tw-ring-offset-width: 0px; --tw-ring-offset-color: #fff; --tw-ring-color: rgb(59 130 246 / 0.5); --tw-ring-offset-shadow: 0 0 #0000; --tw-ring-shadow: 0 0 #0000; --tw-shadow: 0 0 #0000; --tw-shadow-colored: 0 0 #0000; --tw-blur: ; --tw-brightness: ; --tw-contrast: ; --tw-grayscale: ; --tw-hue-rotate: ; --tw-invert: ; --tw-saturate: ; --tw-sepia: ; --tw-drop-shadow: ; --tw-backdrop-blur: ; --tw-backdrop-brightness: ; --tw-backdrop-contrast: ; --tw-backdrop-grayscale: ; --tw-backdrop-hue-rotate: ; --tw-backdrop-invert: ; --tw-backdrop-opacity: ; --tw-backdrop-saturate: ; --tw-backdrop-sepia: ; font-family: &amp;quot;Times New Roman&amp;quot;; font-weight: 700; font-size: 14px;&quot;&gt;u&amp;nbsp;&lt;/sup&gt;" style="edgeLabel;html=1;align=center;verticalAlign=middle;resizable=0;points=[];labelBackgroundColor=none;" parent="03DhXbHCtmCu_sxHWPTh-34" vertex="1" connectable="0">
          <mxGeometry x="0.0259" y="6" relative="1" as="geometry">
            <mxPoint x="17" as="offset" />
          </mxGeometry>
        </mxCell>
        <mxCell id="03DhXbHCtmCu_sxHWPTh-36" value="" style="curved=1;endArrow=classic;html=1;rounded=0;exitX=0.08;exitY=0.587;exitDx=0;exitDy=0;entryX=1;entryY=0.5;entryDx=0;entryDy=0;exitPerimeter=0;" parent="03DhXbHCtmCu_sxHWPTh-30" source="03DhXbHCtmCu_sxHWPTh-38" target="03DhXbHCtmCu_sxHWPTh-32" edge="1">
          <mxGeometry width="50" height="50" relative="1" as="geometry">
            <mxPoint x="107.63999999999999" y="111.32" as="sourcePoint" />
            <mxPoint x="96.60000000000001" y="27.599999999999998" as="targetPoint" />
            <Array as="points">
              <mxPoint x="87.39999999999999" y="36.800000000000004" />
            </Array>
          </mxGeometry>
        </mxCell>
        <mxCell id="03DhXbHCtmCu_sxHWPTh-37" value="p&lt;sup style=&quot;--tw-border-spacing-x: 0; --tw-border-spacing-y: 0; --tw-translate-x: 0; --tw-translate-y: 0; --tw-rotate: 0; --tw-skew-x: 0; --tw-skew-y: 0; --tw-scale-x: 1; --tw-scale-y: 1; --tw-pan-x: ; --tw-pan-y: ; --tw-pinch-zoom: ; --tw-scroll-snap-strictness: proximity; --tw-ordinal: ; --tw-slashed-zero: ; --tw-numeric-figure: ; --tw-numeric-spacing: ; --tw-numeric-fraction: ; --tw-ring-inset: ; --tw-ring-offset-width: 0px; --tw-ring-offset-color: #fff; --tw-ring-color: rgb(59 130 246 / 0.5); --tw-ring-offset-shadow: 0 0 #0000; --tw-ring-shadow: 0 0 #0000; --tw-shadow: 0 0 #0000; --tw-shadow-colored: 0 0 #0000; --tw-blur: ; --tw-brightness: ; --tw-contrast: ; --tw-grayscale: ; --tw-hue-rotate: ; --tw-invert: ; --tw-saturate: ; --tw-sepia: ; --tw-drop-shadow: ; --tw-backdrop-blur: ; --tw-backdrop-brightness: ; --tw-backdrop-contrast: ; --tw-backdrop-grayscale: ; --tw-backdrop-hue-rotate: ; --tw-backdrop-invert: ; --tw-backdrop-opacity: ; --tw-backdrop-saturate: ; --tw-backdrop-sepia: ; font-family: &amp;quot;Times New Roman&amp;quot;; font-weight: 700; font-size: 14px;&quot;&gt;k&amp;nbsp;&lt;/sup&gt;&lt;span style=&quot;font-family: &amp;quot;Times New Roman&amp;quot;; font-size: 14px; font-weight: 700;&quot;&gt;signs DNS record&lt;/span&gt;&lt;sup style=&quot;--tw-border-spacing-x: 0; --tw-border-spacing-y: 0; --tw-translate-x: 0; --tw-translate-y: 0; --tw-rotate: 0; --tw-skew-x: 0; --tw-skew-y: 0; --tw-scale-x: 1; --tw-scale-y: 1; --tw-pan-x: ; --tw-pan-y: ; --tw-pinch-zoom: ; --tw-scroll-snap-strictness: proximity; --tw-ordinal: ; --tw-slashed-zero: ; --tw-numeric-figure: ; --tw-numeric-spacing: ; --tw-numeric-fraction: ; --tw-ring-inset: ; --tw-ring-offset-width: 0px; --tw-ring-offset-color: #fff; --tw-ring-color: rgb(59 130 246 / 0.5); --tw-ring-offset-shadow: 0 0 #0000; --tw-ring-shadow: 0 0 #0000; --tw-shadow: 0 0 #0000; --tw-shadow-colored: 0 0 #0000; --tw-blur: ; --tw-brightness: ; --tw-contrast: ; --tw-grayscale: ; --tw-hue-rotate: ; --tw-invert: ; --tw-saturate: ; --tw-sepia: ; --tw-drop-shadow: ; --tw-backdrop-blur: ; --tw-backdrop-brightness: ; --tw-backdrop-contrast: ; --tw-backdrop-grayscale: ; --tw-backdrop-hue-rotate: ; --tw-backdrop-invert: ; --tw-backdrop-opacity: ; --tw-backdrop-saturate: ; --tw-backdrop-sepia: ; font-family: &amp;quot;Times New Roman&amp;quot;; font-weight: 700; font-size: 14px;&quot;&gt;&amp;nbsp;&lt;/sup&gt;" style="edgeLabel;html=1;align=center;verticalAlign=middle;resizable=0;points=[];labelBackgroundColor=none;" parent="03DhXbHCtmCu_sxHWPTh-36" vertex="1" connectable="0">
          <mxGeometry x="0.0259" y="6" relative="1" as="geometry">
            <mxPoint x="-7" y="4" as="offset" />
          </mxGeometry>
        </mxCell>
        <mxCell id="03DhXbHCtmCu_sxHWPTh-38" value="Authoritative&lt;br&gt;NS" style="ellipse;shape=cloud;whiteSpace=wrap;html=1;" parent="03DhXbHCtmCu_sxHWPTh-30" vertex="1">
          <mxGeometry x="133.39999999999998" y="55.199999999999996" width="78.19999999999999" height="55.199999999999996" as="geometry" />
        </mxCell>
        <mxCell id="03DhXbHCtmCu_sxHWPTh-93" value="Zone C" style="text;html=1;align=center;verticalAlign=middle;resizable=0;points=[];autosize=1;strokeColor=none;fillColor=none;fontStyle=5;fontFamily=Times New Roman;fontSize=13;" parent="03DhXbHCtmCu_sxHWPTh-30" vertex="1">
          <mxGeometry x="85" width="60" height="30" as="geometry" />
        </mxCell>
        <mxCell id="03DhXbHCtmCu_sxHWPTh-22" value="" style="whiteSpace=wrap;html=1;aspect=fixed;strokeWidth=1;" parent="1" vertex="1">
          <mxGeometry x="554" y="401" width="220" height="220" as="geometry" />
        </mxCell>
        <mxCell id="03DhXbHCtmCu_sxHWPTh-23" value="&lt;font size=&quot;1&quot; face=&quot;Times New Roman&quot;&gt;&lt;b style=&quot;font-size: 14px;&quot;&gt;ZSK&lt;/b&gt;&lt;/font&gt;" style="ellipse;whiteSpace=wrap;html=1;" parent="1" vertex="1">
          <mxGeometry x="559" y="481" width="40" height="30" as="geometry" />
        </mxCell>
        <mxCell id="03DhXbHCtmCu_sxHWPTh-24" value="&lt;font size=&quot;1&quot; face=&quot;Times New Roman&quot;&gt;&lt;b style=&quot;font-size: 14px;&quot;&gt;KSK&lt;/b&gt;&lt;/font&gt;" style="ellipse;whiteSpace=wrap;html=1;" parent="1" vertex="1">
          <mxGeometry x="559" y="591" width="40" height="30" as="geometry" />
        </mxCell>
        <mxCell id="03DhXbHCtmCu_sxHWPTh-25" value="" style="curved=1;endArrow=classic;html=1;rounded=0;exitX=1;exitY=0.5;exitDx=0;exitDy=0;entryX=0.7;entryY=1.133;entryDx=0;entryDy=0;entryPerimeter=0;" parent="1" source="03DhXbHCtmCu_sxHWPTh-24" target="03DhXbHCtmCu_sxHWPTh-23" edge="1">
          <mxGeometry width="50" height="50" relative="1" as="geometry">
            <mxPoint x="609" y="611" as="sourcePoint" />
            <mxPoint x="659" y="561" as="targetPoint" />
            <Array as="points">
              <mxPoint x="619" y="571" />
            </Array>
          </mxGeometry>
        </mxCell>
        <mxCell id="03DhXbHCtmCu_sxHWPTh-26" value="p&lt;sup style=&quot;--tw-border-spacing-x: 0; --tw-border-spacing-y: 0; --tw-translate-x: 0; --tw-translate-y: 0; --tw-rotate: 0; --tw-skew-x: 0; --tw-skew-y: 0; --tw-scale-x: 1; --tw-scale-y: 1; --tw-pan-x: ; --tw-pan-y: ; --tw-pinch-zoom: ; --tw-scroll-snap-strictness: proximity; --tw-ordinal: ; --tw-slashed-zero: ; --tw-numeric-figure: ; --tw-numeric-spacing: ; --tw-numeric-fraction: ; --tw-ring-inset: ; --tw-ring-offset-width: 0px; --tw-ring-offset-color: #fff; --tw-ring-color: rgb(59 130 246 / 0.5); --tw-ring-offset-shadow: 0 0 #0000; --tw-ring-shadow: 0 0 #0000; --tw-shadow: 0 0 #0000; --tw-shadow-colored: 0 0 #0000; --tw-blur: ; --tw-brightness: ; --tw-contrast: ; --tw-grayscale: ; --tw-hue-rotate: ; --tw-invert: ; --tw-saturate: ; --tw-sepia: ; --tw-drop-shadow: ; --tw-backdrop-blur: ; --tw-backdrop-brightness: ; --tw-backdrop-contrast: ; --tw-backdrop-grayscale: ; --tw-backdrop-hue-rotate: ; --tw-backdrop-invert: ; --tw-backdrop-opacity: ; --tw-backdrop-saturate: ; --tw-backdrop-sepia: ; font-family: &amp;quot;Times New Roman&amp;quot;; font-weight: 700; font-size: 14px;&quot;&gt;k&amp;nbsp;&lt;/sup&gt;&lt;span style=&quot;font-family: &amp;quot;Times New Roman&amp;quot;; font-size: 14px; font-weight: 700;&quot;&gt;signs ZSK&#39;s P&lt;/span&gt;&lt;sup style=&quot;--tw-border-spacing-x: 0; --tw-border-spacing-y: 0; --tw-translate-x: 0; --tw-translate-y: 0; --tw-rotate: 0; --tw-skew-x: 0; --tw-skew-y: 0; --tw-scale-x: 1; --tw-scale-y: 1; --tw-pan-x: ; --tw-pan-y: ; --tw-pinch-zoom: ; --tw-scroll-snap-strictness: proximity; --tw-ordinal: ; --tw-slashed-zero: ; --tw-numeric-figure: ; --tw-numeric-spacing: ; --tw-numeric-fraction: ; --tw-ring-inset: ; --tw-ring-offset-width: 0px; --tw-ring-offset-color: #fff; --tw-ring-color: rgb(59 130 246 / 0.5); --tw-ring-offset-shadow: 0 0 #0000; --tw-ring-shadow: 0 0 #0000; --tw-shadow: 0 0 #0000; --tw-shadow-colored: 0 0 #0000; --tw-blur: ; --tw-brightness: ; --tw-contrast: ; --tw-grayscale: ; --tw-hue-rotate: ; --tw-invert: ; --tw-saturate: ; --tw-sepia: ; --tw-drop-shadow: ; --tw-backdrop-blur: ; --tw-backdrop-brightness: ; --tw-backdrop-contrast: ; --tw-backdrop-grayscale: ; --tw-backdrop-hue-rotate: ; --tw-backdrop-invert: ; --tw-backdrop-opacity: ; --tw-backdrop-saturate: ; --tw-backdrop-sepia: ; font-family: &amp;quot;Times New Roman&amp;quot;; font-weight: 700; font-size: 14px;&quot;&gt;u&amp;nbsp;&lt;/sup&gt;" style="edgeLabel;html=1;align=center;verticalAlign=middle;resizable=0;points=[];labelBackgroundColor=none;" parent="03DhXbHCtmCu_sxHWPTh-25" vertex="1" connectable="0">
          <mxGeometry x="0.0259" y="6" relative="1" as="geometry">
            <mxPoint x="7" as="offset" />
          </mxGeometry>
        </mxCell>
        <mxCell id="03DhXbHCtmCu_sxHWPTh-27" value="" style="curved=1;endArrow=classic;html=1;rounded=0;exitX=0.08;exitY=0.587;exitDx=0;exitDy=0;entryX=1;entryY=0.5;entryDx=0;entryDy=0;exitPerimeter=0;" parent="1" source="03DhXbHCtmCu_sxHWPTh-29" target="03DhXbHCtmCu_sxHWPTh-23" edge="1">
          <mxGeometry width="50" height="50" relative="1" as="geometry">
            <mxPoint x="671" y="522" as="sourcePoint" />
            <mxPoint x="659" y="431" as="targetPoint" />
            <Array as="points">
              <mxPoint x="649" y="441" />
            </Array>
          </mxGeometry>
        </mxCell>
        <mxCell id="03DhXbHCtmCu_sxHWPTh-28" value="p&lt;sup style=&quot;--tw-border-spacing-x: 0; --tw-border-spacing-y: 0; --tw-translate-x: 0; --tw-translate-y: 0; --tw-rotate: 0; --tw-skew-x: 0; --tw-skew-y: 0; --tw-scale-x: 1; --tw-scale-y: 1; --tw-pan-x: ; --tw-pan-y: ; --tw-pinch-zoom: ; --tw-scroll-snap-strictness: proximity; --tw-ordinal: ; --tw-slashed-zero: ; --tw-numeric-figure: ; --tw-numeric-spacing: ; --tw-numeric-fraction: ; --tw-ring-inset: ; --tw-ring-offset-width: 0px; --tw-ring-offset-color: #fff; --tw-ring-color: rgb(59 130 246 / 0.5); --tw-ring-offset-shadow: 0 0 #0000; --tw-ring-shadow: 0 0 #0000; --tw-shadow: 0 0 #0000; --tw-shadow-colored: 0 0 #0000; --tw-blur: ; --tw-brightness: ; --tw-contrast: ; --tw-grayscale: ; --tw-hue-rotate: ; --tw-invert: ; --tw-saturate: ; --tw-sepia: ; --tw-drop-shadow: ; --tw-backdrop-blur: ; --tw-backdrop-brightness: ; --tw-backdrop-contrast: ; --tw-backdrop-grayscale: ; --tw-backdrop-hue-rotate: ; --tw-backdrop-invert: ; --tw-backdrop-opacity: ; --tw-backdrop-saturate: ; --tw-backdrop-sepia: ; font-family: &amp;quot;Times New Roman&amp;quot;; font-weight: 700; font-size: 14px;&quot;&gt;k&amp;nbsp;&lt;/sup&gt;&lt;span style=&quot;font-family: &amp;quot;Times New Roman&amp;quot;; font-size: 14px; font-weight: 700;&quot;&gt;signs DNS record&lt;/span&gt;&lt;sup style=&quot;--tw-border-spacing-x: 0; --tw-border-spacing-y: 0; --tw-translate-x: 0; --tw-translate-y: 0; --tw-rotate: 0; --tw-skew-x: 0; --tw-skew-y: 0; --tw-scale-x: 1; --tw-scale-y: 1; --tw-pan-x: ; --tw-pan-y: ; --tw-pinch-zoom: ; --tw-scroll-snap-strictness: proximity; --tw-ordinal: ; --tw-slashed-zero: ; --tw-numeric-figure: ; --tw-numeric-spacing: ; --tw-numeric-fraction: ; --tw-ring-inset: ; --tw-ring-offset-width: 0px; --tw-ring-offset-color: #fff; --tw-ring-color: rgb(59 130 246 / 0.5); --tw-ring-offset-shadow: 0 0 #0000; --tw-ring-shadow: 0 0 #0000; --tw-shadow: 0 0 #0000; --tw-shadow-colored: 0 0 #0000; --tw-blur: ; --tw-brightness: ; --tw-contrast: ; --tw-grayscale: ; --tw-hue-rotate: ; --tw-invert: ; --tw-saturate: ; --tw-sepia: ; --tw-drop-shadow: ; --tw-backdrop-blur: ; --tw-backdrop-brightness: ; --tw-backdrop-contrast: ; --tw-backdrop-grayscale: ; --tw-backdrop-hue-rotate: ; --tw-backdrop-invert: ; --tw-backdrop-opacity: ; --tw-backdrop-saturate: ; --tw-backdrop-sepia: ; font-family: &amp;quot;Times New Roman&amp;quot;; font-weight: 700; font-size: 14px;&quot;&gt;&amp;nbsp;&lt;/sup&gt;" style="edgeLabel;html=1;align=center;verticalAlign=middle;resizable=0;points=[];labelBackgroundColor=none;" parent="03DhXbHCtmCu_sxHWPTh-27" vertex="1" connectable="0">
          <mxGeometry x="0.0259" y="6" relative="1" as="geometry">
            <mxPoint x="38" y="4" as="offset" />
          </mxGeometry>
        </mxCell>
        <mxCell id="03DhXbHCtmCu_sxHWPTh-29" value="&lt;font style=&quot;font-size: 13px;&quot;&gt;TLD&lt;br&gt;NS&lt;/font&gt;" style="ellipse;shape=cloud;whiteSpace=wrap;html=1;fontFamily=Times New Roman;fontStyle=1" parent="1" vertex="1">
          <mxGeometry x="699" y="471" width="70" height="50" as="geometry" />
        </mxCell>
        <mxCell id="03DhXbHCtmCu_sxHWPTh-39" value="" style="curved=1;endArrow=classic;html=1;rounded=0;exitX=0.5;exitY=1;exitDx=0;exitDy=0;entryX=0.5;entryY=0;entryDx=0;entryDy=0;strokeWidth=2;" parent="1" source="03DhXbHCtmCu_sxHWPTh-12" target="03DhXbHCtmCu_sxHWPTh-23" edge="1">
          <mxGeometry width="50" height="50" relative="1" as="geometry">
            <mxPoint x="484" y="491" as="sourcePoint" />
            <mxPoint x="474" y="471" as="targetPoint" />
            <Array as="points">
              <mxPoint x="624" y="361" />
            </Array>
          </mxGeometry>
        </mxCell>
        <mxCell id="03DhXbHCtmCu_sxHWPTh-40" value="&lt;font style=&quot;font-size: 11px;&quot;&gt;&lt;b style=&quot;font-size: 11px;&quot;&gt;The Root&#39;s KSK&#39;s p&lt;sup style=&quot;font-size: 11px;&quot;&gt;u&lt;/sup&gt; signs the p&lt;sup style=&quot;font-size: 11px;&quot;&gt;k&lt;/sup&gt; ZSK&lt;/b&gt;&lt;/font&gt;" style="edgeLabel;html=1;align=center;verticalAlign=middle;resizable=0;points=[];fontFamily=Times New Roman;fontSize=11;" parent="03DhXbHCtmCu_sxHWPTh-39" vertex="1" connectable="0">
          <mxGeometry x="-0.1006" y="-13" relative="1" as="geometry">
            <mxPoint x="28" y="-2" as="offset" />
          </mxGeometry>
        </mxCell>
        <mxCell id="03DhXbHCtmCu_sxHWPTh-41" value="" style="curved=1;endArrow=classic;html=1;rounded=0;exitX=0.5;exitY=1;exitDx=0;exitDy=0;entryX=0.375;entryY=0;entryDx=0;entryDy=0;entryPerimeter=0;strokeWidth=2;" parent="1" source="03DhXbHCtmCu_sxHWPTh-24" target="03DhXbHCtmCu_sxHWPTh-32" edge="1">
          <mxGeometry width="50" height="50" relative="1" as="geometry">
            <mxPoint x="579" y="621" as="sourcePoint" />
            <mxPoint x="574" y="801" as="targetPoint" />
            <Array as="points">
              <mxPoint x="619" y="681" />
            </Array>
          </mxGeometry>
        </mxCell>
        <mxCell id="03DhXbHCtmCu_sxHWPTh-42" value="&lt;font style=&quot;font-size: 11px;&quot;&gt;&lt;b style=&quot;font-size: 11px;&quot;&gt;The TLD&#39;s KSK&#39;s p&lt;sup style=&quot;font-size: 11px;&quot;&gt;u&lt;/sup&gt; signs the p&lt;sup style=&quot;font-size: 11px;&quot;&gt;k&lt;/sup&gt; ZSK&lt;/b&gt;&lt;/font&gt;" style="edgeLabel;html=1;align=center;verticalAlign=middle;resizable=0;points=[];fontFamily=Times New Roman;fontSize=11;" parent="03DhXbHCtmCu_sxHWPTh-41" vertex="1" connectable="0">
          <mxGeometry x="-0.1006" y="-13" relative="1" as="geometry">
            <mxPoint x="52" y="-2" as="offset" />
          </mxGeometry>
        </mxCell>
        <mxCell id="03DhXbHCtmCu_sxHWPTh-46" value="" style="endArrow=classic;html=1;rounded=0;entryX=0.875;entryY=0.5;entryDx=0;entryDy=0;entryPerimeter=0;strokeWidth=2;exitX=0;exitY=0.5;exitDx=0;exitDy=0;" parent="1" source="03DhXbHCtmCu_sxHWPTh-95" target="03DhXbHCtmCu_sxHWPTh-6" edge="1">
          <mxGeometry width="50" height="50" relative="1" as="geometry">
            <mxPoint x="354" y="292" as="sourcePoint" />
            <mxPoint x="420" y="297" as="targetPoint" />
          </mxGeometry>
        </mxCell>
        <mxCell id="03DhXbHCtmCu_sxHWPTh-48" value="Response" style="edgeLabel;html=1;align=center;verticalAlign=middle;resizable=0;points=[];" parent="03DhXbHCtmCu_sxHWPTh-46" vertex="1" connectable="0">
          <mxGeometry x="-0.3051" relative="1" as="geometry">
            <mxPoint x="-14" y="-1" as="offset" />
          </mxGeometry>
        </mxCell>
        <mxCell id="03DhXbHCtmCu_sxHWPTh-49" value="" style="curved=1;endArrow=classic;html=1;rounded=0;entryX=0.07;entryY=0.4;entryDx=0;entryDy=0;entryPerimeter=0;exitX=0.07;exitY=0.4;exitDx=0;exitDy=0;exitPerimeter=0;strokeWidth=2;" parent="1" source="03DhXbHCtmCu_sxHWPTh-5" target="03DhXbHCtmCu_sxHWPTh-6" edge="1">
          <mxGeometry width="50" height="50" relative="1" as="geometry">
            <mxPoint x="54" y="441" as="sourcePoint" />
            <mxPoint x="118" y="351" as="targetPoint" />
            <Array as="points">
              <mxPoint x="24" y="271" />
            </Array>
          </mxGeometry>
        </mxCell>
        <mxCell id="03DhXbHCtmCu_sxHWPTh-50" value="&lt;b&gt;&lt;font style=&quot;font-size: 12px;&quot; face=&quot;Times New Roman&quot;&gt;Shares Secret Key&lt;/font&gt;&lt;/b&gt;" style="edgeLabel;html=1;align=center;verticalAlign=middle;resizable=0;points=[];" parent="03DhXbHCtmCu_sxHWPTh-49" vertex="1" connectable="0">
          <mxGeometry x="-0.1148" y="-17" relative="1" as="geometry">
            <mxPoint x="16" y="-14" as="offset" />
          </mxGeometry>
        </mxCell>
        <mxCell id="03DhXbHCtmCu_sxHWPTh-51" value="" style="curved=1;endArrow=classic;html=1;rounded=0;exitX=0.52;exitY=0.102;exitDx=0;exitDy=0;exitPerimeter=0;entryX=0.18;entryY=0.545;entryDx=0;entryDy=0;entryPerimeter=0;strokeWidth=2;" parent="1" source="03DhXbHCtmCu_sxHWPTh-5" target="03DhXbHCtmCu_sxHWPTh-43" edge="1">
          <mxGeometry width="50" height="50" relative="1" as="geometry">
            <mxPoint x="264" y="451" as="sourcePoint" />
            <mxPoint x="314" y="401" as="targetPoint" />
            <Array as="points">
              <mxPoint x="114" y="371" />
            </Array>
          </mxGeometry>
        </mxCell>
        <mxCell id="03DhXbHCtmCu_sxHWPTh-52" value="&lt;b&gt;&lt;font style=&quot;font-size: 12px;&quot; face=&quot;Times New Roman&quot;&gt;Encrypted Message&lt;/font&gt;&lt;/b&gt;" style="edgeLabel;html=1;align=center;verticalAlign=middle;resizable=0;points=[];" parent="03DhXbHCtmCu_sxHWPTh-51" vertex="1" connectable="0">
          <mxGeometry x="-0.0156" y="6" relative="1" as="geometry">
            <mxPoint as="offset" />
          </mxGeometry>
        </mxCell>
        <mxCell id="03DhXbHCtmCu_sxHWPTh-54" value="&lt;b&gt;&lt;font style=&quot;font-size: 13px;&quot; face=&quot;Times New Roman&quot;&gt;Decryption&lt;/font&gt;&lt;/b&gt;" style="edgeLabel;html=1;align=center;verticalAlign=middle;resizable=0;points=[];" parent="03DhXbHCtmCu_sxHWPTh-51" vertex="1" connectable="0">
          <mxGeometry x="0.4274" y="-3" relative="1" as="geometry">
            <mxPoint x="48" y="-23" as="offset" />
          </mxGeometry>
        </mxCell>
        <mxCell id="03DhXbHCtmCu_sxHWPTh-55" value="" style="endArrow=none;html=1;rounded=0;exitX=0.1;exitY=0.2;exitDx=0;exitDy=0;exitPerimeter=0;entryX=0.475;entryY=0.966;entryDx=0;entryDy=0;entryPerimeter=0;" parent="1" source="03DhXbHCtmCu_sxHWPTh-2" target="03DhXbHCtmCu_sxHWPTh-5" edge="1">
          <mxGeometry width="50" height="50" relative="1" as="geometry">
            <mxPoint x="114" y="501" as="sourcePoint" />
            <mxPoint x="164" y="451" as="targetPoint" />
          </mxGeometry>
        </mxCell>
        <mxCell id="03DhXbHCtmCu_sxHWPTh-56" value="" style="curved=1;endArrow=classic;html=1;rounded=0;exitX=0.674;exitY=0.906;exitDx=0;exitDy=0;exitPerimeter=0;entryX=0.9;entryY=0.2;entryDx=0;entryDy=0;entryPerimeter=0;strokeWidth=2;" parent="1" source="03DhXbHCtmCu_sxHWPTh-6" target="03DhXbHCtmCu_sxHWPTh-2" edge="1">
          <mxGeometry width="50" height="50" relative="1" as="geometry">
            <mxPoint x="154" y="401" as="sourcePoint" />
            <mxPoint x="224" y="471" as="targetPoint" />
            <Array as="points">
              <mxPoint x="214" y="461" />
            </Array>
          </mxGeometry>
        </mxCell>
        <mxCell id="03DhXbHCtmCu_sxHWPTh-57" value="&lt;b&gt;&lt;font style=&quot;font-size: 12px;&quot; face=&quot;Times New Roman&quot;&gt;Plain Text Response&lt;/font&gt;&lt;/b&gt;" style="edgeLabel;html=1;align=center;verticalAlign=middle;resizable=0;points=[];" parent="03DhXbHCtmCu_sxHWPTh-56" vertex="1" connectable="0">
          <mxGeometry x="-0.055" y="-15" relative="1" as="geometry">
            <mxPoint x="-18" as="offset" />
          </mxGeometry>
        </mxCell>
        <mxCell id="03DhXbHCtmCu_sxHWPTh-8" value="DNS&lt;br style=&quot;font-size: 12px;&quot;&gt;ZONE&lt;br style=&quot;font-size: 12px;&quot;&gt;Administrator" style="whiteSpace=wrap;html=1;aspect=fixed;fontFamily=Times New Roman;fontSize=12;fontStyle=1" parent="1" vertex="1">
          <mxGeometry x="387" y="243" width="80" height="80" as="geometry" />
        </mxCell>
        <mxCell id="03DhXbHCtmCu_sxHWPTh-61" value="" style="curved=1;endArrow=classic;html=1;rounded=0;entryX=-0.005;entryY=0.556;entryDx=0;entryDy=0;entryPerimeter=0;exitX=1;exitY=0.5;exitDx=0;exitDy=0;strokeWidth=2;" parent="1" source="03DhXbHCtmCu_sxHWPTh-95" target="03DhXbHCtmCu_sxHWPTh-22" edge="1">
          <mxGeometry width="50" height="50" relative="1" as="geometry">
            <mxPoint x="312" y="451" as="sourcePoint" />
            <mxPoint x="362" y="401" as="targetPoint" />
            <Array as="points">
              <mxPoint x="404" y="421" />
            </Array>
          </mxGeometry>
        </mxCell>
        <mxCell id="03DhXbHCtmCu_sxHWPTh-69" value="Delegates to TLD" style="edgeLabel;html=1;align=center;verticalAlign=middle;resizable=0;points=[];" parent="03DhXbHCtmCu_sxHWPTh-61" vertex="1" connectable="0">
          <mxGeometry x="-0.1356" y="3" relative="1" as="geometry">
            <mxPoint x="15" y="-29" as="offset" />
          </mxGeometry>
        </mxCell>
        <mxCell id="03DhXbHCtmCu_sxHWPTh-62" value="" style="endArrow=classic;html=1;rounded=0;exitX=1;exitY=0.5;exitDx=0;exitDy=0;entryX=0;entryY=0.667;entryDx=0;entryDy=0;entryPerimeter=0;fillColor=#a20025;strokeColor=#3399FF;strokeWidth=2;" parent="1" source="03DhXbHCtmCu_sxHWPTh-8" target="03DhXbHCtmCu_sxHWPTh-11" edge="1">
          <mxGeometry width="50" height="50" relative="1" as="geometry">
            <mxPoint x="504" y="421" as="sourcePoint" />
            <mxPoint x="554" y="371" as="targetPoint" />
            <Array as="points">
              <mxPoint x="494" y="231" />
            </Array>
          </mxGeometry>
        </mxCell>
        <mxCell id="03DhXbHCtmCu_sxHWPTh-72" value="Generated&lt;br style=&quot;font-size: 11px;&quot;&gt;Keys&amp;nbsp;" style="edgeLabel;html=1;align=center;verticalAlign=middle;resizable=0;points=[];fontStyle=1;fontFamily=Times New Roman;fontSize=11;" parent="03DhXbHCtmCu_sxHWPTh-62" vertex="1" connectable="0">
          <mxGeometry x="0.1455" y="1" relative="1" as="geometry">
            <mxPoint y="1" as="offset" />
          </mxGeometry>
        </mxCell>
        <mxCell id="03DhXbHCtmCu_sxHWPTh-67" value="" style="endArrow=classic;html=1;rounded=0;exitX=1;exitY=0.5;exitDx=0;exitDy=0;entryX=0;entryY=0.5;entryDx=0;entryDy=0;fillColor=#a20025;strokeColor=#3399FF;strokeWidth=2;" parent="1" source="03DhXbHCtmCu_sxHWPTh-8" target="03DhXbHCtmCu_sxHWPTh-22" edge="1">
          <mxGeometry width="50" height="50" relative="1" as="geometry">
            <mxPoint x="414" y="291" as="sourcePoint" />
            <mxPoint x="537" y="509" as="targetPoint" />
          </mxGeometry>
        </mxCell>
        <mxCell id="03DhXbHCtmCu_sxHWPTh-73" value="Generated&lt;br style=&quot;font-size: 11px;&quot;&gt;Keys" style="edgeLabel;html=1;align=center;verticalAlign=middle;resizable=0;points=[];fontStyle=1;fontFamily=Times New Roman;fontSize=11;" parent="03DhXbHCtmCu_sxHWPTh-67" vertex="1" connectable="0">
          <mxGeometry x="0.0869" y="2" relative="1" as="geometry">
            <mxPoint as="offset" />
          </mxGeometry>
        </mxCell>
        <mxCell id="03DhXbHCtmCu_sxHWPTh-68" value="" style="endArrow=classic;html=1;rounded=0;exitX=1;exitY=0.5;exitDx=0;exitDy=0;entryX=-0.007;entryY=0.602;entryDx=0;entryDy=0;entryPerimeter=0;fillColor=#a20025;strokeColor=#3399FF;strokeWidth=2;" parent="1" source="03DhXbHCtmCu_sxHWPTh-8" target="03DhXbHCtmCu_sxHWPTh-31" edge="1">
          <mxGeometry width="50" height="50" relative="1" as="geometry">
            <mxPoint x="424" y="303" as="sourcePoint" />
            <mxPoint x="536" y="562" as="targetPoint" />
            <Array as="points">
              <mxPoint x="504" y="561" />
            </Array>
          </mxGeometry>
        </mxCell>
        <mxCell id="03DhXbHCtmCu_sxHWPTh-74" value="Generated&lt;br style=&quot;font-size: 11px;&quot;&gt;Keys" style="edgeLabel;html=1;align=center;verticalAlign=middle;resizable=0;points=[];fontStyle=1;fontFamily=Times New Roman;fontSize=11;" parent="03DhXbHCtmCu_sxHWPTh-68" vertex="1" connectable="0">
          <mxGeometry x="-0.1444" y="1" relative="1" as="geometry">
            <mxPoint y="36" as="offset" />
          </mxGeometry>
        </mxCell>
        <mxCell id="03DhXbHCtmCu_sxHWPTh-70" value="" style="curved=1;endArrow=classic;html=1;rounded=0;entryX=-0.005;entryY=0.556;entryDx=0;entryDy=0;entryPerimeter=0;exitX=0;exitY=1;exitDx=0;exitDy=0;strokeWidth=2;" parent="1" source="03DhXbHCtmCu_sxHWPTh-95" edge="1">
          <mxGeometry width="50" height="50" relative="1" as="geometry">
            <mxPoint x="248.5" y="629" as="sourcePoint" />
            <mxPoint x="555.5" y="878" as="targetPoint" />
            <Array as="points">
              <mxPoint x="334" y="561" />
              <mxPoint x="426.5" y="809" />
            </Array>
          </mxGeometry>
        </mxCell>
        <mxCell id="03DhXbHCtmCu_sxHWPTh-71" value="&lt;b&gt;&lt;font face=&quot;Times New Roman&quot;&gt;Delegates to&lt;br&gt;Authoritative NS&lt;/font&gt;&lt;/b&gt;" style="edgeLabel;html=1;align=center;verticalAlign=middle;resizable=0;points=[];" parent="03DhXbHCtmCu_sxHWPTh-70" vertex="1" connectable="0">
          <mxGeometry x="-0.1356" y="3" relative="1" as="geometry">
            <mxPoint x="36" y="48" as="offset" />
          </mxGeometry>
        </mxCell>
        <mxCell id="03DhXbHCtmCu_sxHWPTh-75" value="" style="curved=1;endArrow=classic;html=1;rounded=0;exitX=-0.022;exitY=0.809;exitDx=0;exitDy=0;strokeWidth=2;entryX=0;entryY=1;entryDx=0;entryDy=0;exitPerimeter=0;" parent="1" source="03DhXbHCtmCu_sxHWPTh-31" target="03DhXbHCtmCu_sxHWPTh-95" edge="1">
          <mxGeometry width="50" height="50" relative="1" as="geometry">
            <mxPoint x="214" y="812.5" as="sourcePoint" />
            <mxPoint x="344" y="301" as="targetPoint" />
            <Array as="points">
              <mxPoint x="274" y="751" />
              <mxPoint x="274" y="531" />
            </Array>
          </mxGeometry>
        </mxCell>
        <mxCell id="03DhXbHCtmCu_sxHWPTh-76" value="&lt;b&gt;&lt;font style=&quot;font-size: 12px;&quot; face=&quot;Times New Roman&quot;&gt;Validation&lt;/font&gt;&lt;/b&gt;" style="edgeLabel;html=1;align=center;verticalAlign=middle;resizable=0;points=[];" parent="03DhXbHCtmCu_sxHWPTh-75" vertex="1" connectable="0">
          <mxGeometry x="-0.0156" y="6" relative="1" as="geometry">
            <mxPoint x="16" y="-10" as="offset" />
          </mxGeometry>
        </mxCell>
        <mxCell id="03DhXbHCtmCu_sxHWPTh-78" value="" style="curved=1;endArrow=classic;html=1;rounded=0;entryX=0;entryY=0.222;entryDx=0;entryDy=0;entryPerimeter=0;exitX=0.5;exitY=0;exitDx=0;exitDy=0;strokeWidth=2;" parent="1" source="03DhXbHCtmCu_sxHWPTh-95" target="03DhXbHCtmCu_sxHWPTh-9" edge="1">
          <mxGeometry width="50" height="50" relative="1" as="geometry">
            <mxPoint x="324" y="186" as="sourcePoint" />
            <mxPoint x="374" y="136" as="targetPoint" />
            <Array as="points">
              <mxPoint x="344" y="161" />
              <mxPoint x="404" y="131" />
            </Array>
          </mxGeometry>
        </mxCell>
        <mxCell id="03DhXbHCtmCu_sxHWPTh-79" value="Query Root" style="edgeLabel;html=1;align=center;verticalAlign=middle;resizable=0;points=[];fontFamily=Times New Roman;fontStyle=1" parent="03DhXbHCtmCu_sxHWPTh-78" vertex="1" connectable="0">
          <mxGeometry x="-0.033" y="-1" relative="1" as="geometry">
            <mxPoint as="offset" />
          </mxGeometry>
        </mxCell>
        <mxCell id="03DhXbHCtmCu_sxHWPTh-80" value="" style="curved=1;endArrow=classic;html=1;rounded=0;entryX=0.5;entryY=0;entryDx=0;entryDy=0;exitX=0;exitY=0.25;exitDx=0;exitDy=0;strokeWidth=2;" parent="1" source="03DhXbHCtmCu_sxHWPTh-9" target="03DhXbHCtmCu_sxHWPTh-95" edge="1">
          <mxGeometry width="50" height="50" relative="1" as="geometry">
            <mxPoint x="258" y="265" as="sourcePoint" />
            <mxPoint x="569" y="147" as="targetPoint" />
            <Array as="points">
              <mxPoint x="524" y="141" />
              <mxPoint x="424" y="151" />
            </Array>
          </mxGeometry>
        </mxCell>
        <mxCell id="03DhXbHCtmCu_sxHWPTh-81" value="Delegation and&amp;nbsp;&lt;br&gt;Validation" style="edgeLabel;html=1;align=center;verticalAlign=middle;resizable=0;points=[];fontFamily=Times New Roman;fontStyle=1" parent="03DhXbHCtmCu_sxHWPTh-80" vertex="1" connectable="0">
          <mxGeometry x="-0.033" y="-1" relative="1" as="geometry">
            <mxPoint x="13" y="12" as="offset" />
          </mxGeometry>
        </mxCell>
        <mxCell id="03DhXbHCtmCu_sxHWPTh-82" value="" style="curved=1;endArrow=classic;html=1;rounded=0;exitX=-0.015;exitY=0.584;exitDx=0;exitDy=0;exitPerimeter=0;entryX=1;entryY=1;entryDx=0;entryDy=0;strokeWidth=2;" parent="1" source="03DhXbHCtmCu_sxHWPTh-22" target="03DhXbHCtmCu_sxHWPTh-95" edge="1">
          <mxGeometry width="50" height="50" relative="1" as="geometry">
            <mxPoint x="559" y="895" as="sourcePoint" />
            <mxPoint x="256" y="301" as="targetPoint" />
            <Array as="points">
              <mxPoint x="414" y="521" />
              <mxPoint x="364" y="431" />
            </Array>
          </mxGeometry>
        </mxCell>
        <mxCell id="03DhXbHCtmCu_sxHWPTh-83" value="&lt;font face=&quot;Times New Roman&quot;&gt;&lt;span style=&quot;font-size: 12px;&quot;&gt;&lt;b&gt;Next delegation &lt;br&gt;and validation&lt;/b&gt;&lt;/span&gt;&lt;/font&gt;" style="edgeLabel;html=1;align=center;verticalAlign=middle;resizable=0;points=[];" parent="03DhXbHCtmCu_sxHWPTh-82" vertex="1" connectable="0">
          <mxGeometry x="-0.0156" y="6" relative="1" as="geometry">
            <mxPoint x="14" y="-12" as="offset" />
          </mxGeometry>
        </mxCell>
        <mxCell id="03DhXbHCtmCu_sxHWPTh-86" value="" style="endArrow=classic;html=1;rounded=0;entryX=0.355;entryY=1.016;entryDx=0;entryDy=0;entryPerimeter=0;exitX=0.297;exitY=-0.03;exitDx=0;exitDy=0;exitPerimeter=0;" parent="1" source="03DhXbHCtmCu_sxHWPTh-1" target="03DhXbHCtmCu_sxHWPTh-3" edge="1">
          <mxGeometry width="50" height="50" relative="1" as="geometry">
            <mxPoint x="84" y="691" as="sourcePoint" />
            <mxPoint x="144" y="651" as="targetPoint" />
          </mxGeometry>
        </mxCell>
        <mxCell id="03DhXbHCtmCu_sxHWPTh-88" value="HTTP&lt;br&gt;Response" style="edgeLabel;html=1;align=center;verticalAlign=middle;resizable=0;points=[];fontFamily=Times New Roman;fontStyle=1" parent="03DhXbHCtmCu_sxHWPTh-86" vertex="1" connectable="0">
          <mxGeometry x="-0.149" relative="1" as="geometry">
            <mxPoint x="-30" y="-5" as="offset" />
          </mxGeometry>
        </mxCell>
        <mxCell id="03DhXbHCtmCu_sxHWPTh-87" value="" style="endArrow=classic;html=1;rounded=0;entryX=0.654;entryY=0.015;entryDx=0;entryDy=0;entryPerimeter=0;exitX=0.627;exitY=1.002;exitDx=0;exitDy=0;exitPerimeter=0;" parent="1" source="03DhXbHCtmCu_sxHWPTh-3" target="03DhXbHCtmCu_sxHWPTh-1" edge="1">
          <mxGeometry width="50" height="50" relative="1" as="geometry">
            <mxPoint x="130" y="641" as="sourcePoint" />
            <mxPoint x="454" y="511" as="targetPoint" />
          </mxGeometry>
        </mxCell>
        <mxCell id="03DhXbHCtmCu_sxHWPTh-89" value="HTTP&lt;br style=&quot;--tw-border-spacing-x: 0; --tw-border-spacing-y: 0; --tw-translate-x: 0; --tw-translate-y: 0; --tw-rotate: 0; --tw-skew-x: 0; --tw-skew-y: 0; --tw-scale-x: 1; --tw-scale-y: 1; --tw-pan-x: ; --tw-pan-y: ; --tw-pinch-zoom: ; --tw-scroll-snap-strictness: proximity; --tw-ordinal: ; --tw-slashed-zero: ; --tw-numeric-figure: ; --tw-numeric-spacing: ; --tw-numeric-fraction: ; --tw-ring-inset: ; --tw-ring-offset-width: 0px; --tw-ring-offset-color: #fff; --tw-ring-color: rgb(59 130 246 / 0.5); --tw-ring-offset-shadow: 0 0 #0000; --tw-ring-shadow: 0 0 #0000; --tw-shadow: 0 0 #0000; --tw-shadow-colored: 0 0 #0000; --tw-blur: ; --tw-brightness: ; --tw-contrast: ; --tw-grayscale: ; --tw-hue-rotate: ; --tw-invert: ; --tw-saturate: ; --tw-sepia: ; --tw-drop-shadow: ; --tw-backdrop-blur: ; --tw-backdrop-brightness: ; --tw-backdrop-contrast: ; --tw-backdrop-grayscale: ; --tw-backdrop-hue-rotate: ; --tw-backdrop-invert: ; --tw-backdrop-opacity: ; --tw-backdrop-saturate: ; --tw-backdrop-sepia: ; font-family: &amp;quot;Times New Roman&amp;quot;; font-weight: 700;&quot;&gt;&lt;span style=&quot;font-family: &amp;quot;Times New Roman&amp;quot;; font-weight: 700;&quot;&gt;Request&lt;/span&gt;" style="edgeLabel;html=1;align=center;verticalAlign=middle;resizable=0;points=[];" parent="03DhXbHCtmCu_sxHWPTh-87" vertex="1" connectable="0">
          <mxGeometry x="0.2591" relative="1" as="geometry">
            <mxPoint x="28" y="-12" as="offset" />
          </mxGeometry>
        </mxCell>
        <mxCell id="03DhXbHCtmCu_sxHWPTh-92" value="Zone B" style="text;html=1;align=center;verticalAlign=middle;resizable=0;points=[];autosize=1;strokeColor=none;fillColor=none;fontStyle=5;fontFamily=Times New Roman;fontSize=13;" parent="1" vertex="1">
          <mxGeometry x="634" y="401" width="60" height="30" as="geometry" />
        </mxCell>
        <mxCell id="03DhXbHCtmCu_sxHWPTh-94" value="&lt;b&gt;&lt;font face=&quot;Times New Roman&quot;&gt;HTTP&lt;br&gt;Server&lt;/font&gt;&lt;/b&gt;" style="text;html=1;align=center;verticalAlign=middle;resizable=0;points=[];autosize=1;strokeColor=none;fillColor=none;" parent="1" vertex="1">
          <mxGeometry x="80" y="841" width="60" height="40" as="geometry" />
        </mxCell>
        <mxCell id="03DhXbHCtmCu_sxHWPTh-95" value="" style="ellipse;whiteSpace=wrap;html=1;aspect=fixed;" parent="1" vertex="1">
          <mxGeometry x="341" y="273" width="30" height="30" as="geometry" />
        </mxCell>
        <mxCell id="03DhXbHCtmCu_sxHWPTh-97" value="Key:&lt;br style=&quot;--tw-border-spacing-x: 0; --tw-border-spacing-y: 0; --tw-translate-x: 0; --tw-translate-y: 0; --tw-rotate: 0; --tw-skew-x: 0; --tw-skew-y: 0; --tw-scale-x: 1; --tw-scale-y: 1; --tw-pan-x: ; --tw-pan-y: ; --tw-pinch-zoom: ; --tw-scroll-snap-strictness: proximity; --tw-ordinal: ; --tw-slashed-zero: ; --tw-numeric-figure: ; --tw-numeric-spacing: ; --tw-numeric-fraction: ; --tw-ring-inset: ; --tw-ring-offset-width: 0px; --tw-ring-offset-color: #fff; --tw-ring-color: rgb(59 130 246 / 0.5); --tw-ring-offset-shadow: 0 0 #0000; --tw-ring-shadow: 0 0 #0000; --tw-shadow: 0 0 #0000; --tw-shadow-colored: 0 0 #0000; --tw-blur: ; --tw-brightness: ; --tw-contrast: ; --tw-grayscale: ; --tw-hue-rotate: ; --tw-invert: ; --tw-saturate: ; --tw-sepia: ; --tw-drop-shadow: ; --tw-backdrop-blur: ; --tw-backdrop-brightness: ; --tw-backdrop-contrast: ; --tw-backdrop-grayscale: ; --tw-backdrop-hue-rotate: ; --tw-backdrop-invert: ; --tw-backdrop-opacity: ; --tw-backdrop-saturate: ; --tw-backdrop-sepia: ;&quot;&gt;&lt;span style=&quot;&quot;&gt;DNS - Domain Name Server&lt;/span&gt;&lt;br style=&quot;--tw-border-spacing-x: 0; --tw-border-spacing-y: 0; --tw-translate-x: 0; --tw-translate-y: 0; --tw-rotate: 0; --tw-skew-x: 0; --tw-skew-y: 0; --tw-scale-x: 1; --tw-scale-y: 1; --tw-pan-x: ; --tw-pan-y: ; --tw-pinch-zoom: ; --tw-scroll-snap-strictness: proximity; --tw-ordinal: ; --tw-slashed-zero: ; --tw-numeric-figure: ; --tw-numeric-spacing: ; --tw-numeric-fraction: ; --tw-ring-inset: ; --tw-ring-offset-width: 0px; --tw-ring-offset-color: #fff; --tw-ring-color: rgb(59 130 246 / 0.5); --tw-ring-offset-shadow: 0 0 #0000; --tw-ring-shadow: 0 0 #0000; --tw-shadow: 0 0 #0000; --tw-shadow-colored: 0 0 #0000; --tw-blur: ; --tw-brightness: ; --tw-contrast: ; --tw-grayscale: ; --tw-hue-rotate: ; --tw-invert: ; --tw-saturate: ; --tw-sepia: ; --tw-drop-shadow: ; --tw-backdrop-blur: ; --tw-backdrop-brightness: ; --tw-backdrop-contrast: ; --tw-backdrop-grayscale: ; --tw-backdrop-hue-rotate: ; --tw-backdrop-invert: ; --tw-backdrop-opacity: ; --tw-backdrop-saturate: ; --tw-backdrop-sepia: ;&quot;&gt;&lt;span style=&quot;&quot;&gt;NS - Name Server&lt;/span&gt;&lt;br style=&quot;--tw-border-spacing-x: 0; --tw-border-spacing-y: 0; --tw-translate-x: 0; --tw-translate-y: 0; --tw-rotate: 0; --tw-skew-x: 0; --tw-skew-y: 0; --tw-scale-x: 1; --tw-scale-y: 1; --tw-pan-x: ; --tw-pan-y: ; --tw-pinch-zoom: ; --tw-scroll-snap-strictness: proximity; --tw-ordinal: ; --tw-slashed-zero: ; --tw-numeric-figure: ; --tw-numeric-spacing: ; --tw-numeric-fraction: ; --tw-ring-inset: ; --tw-ring-offset-width: 0px; --tw-ring-offset-color: #fff; --tw-ring-color: rgb(59 130 246 / 0.5); --tw-ring-offset-shadow: 0 0 #0000; --tw-ring-shadow: 0 0 #0000; --tw-shadow: 0 0 #0000; --tw-shadow-colored: 0 0 #0000; --tw-blur: ; --tw-brightness: ; --tw-contrast: ; --tw-grayscale: ; --tw-hue-rotate: ; --tw-invert: ; --tw-saturate: ; --tw-sepia: ; --tw-drop-shadow: ; --tw-backdrop-blur: ; --tw-backdrop-brightness: ; --tw-backdrop-contrast: ; --tw-backdrop-grayscale: ; --tw-backdrop-hue-rotate: ; --tw-backdrop-invert: ; --tw-backdrop-opacity: ; --tw-backdrop-saturate: ; --tw-backdrop-sepia: ;&quot;&gt;&lt;span style=&quot;&quot;&gt;ZSK - Zone Signing Key&lt;/span&gt;&lt;br style=&quot;--tw-border-spacing-x: 0; --tw-border-spacing-y: 0; --tw-translate-x: 0; --tw-translate-y: 0; --tw-rotate: 0; --tw-skew-x: 0; --tw-skew-y: 0; --tw-scale-x: 1; --tw-scale-y: 1; --tw-pan-x: ; --tw-pan-y: ; --tw-pinch-zoom: ; --tw-scroll-snap-strictness: proximity; --tw-ordinal: ; --tw-slashed-zero: ; --tw-numeric-figure: ; --tw-numeric-spacing: ; --tw-numeric-fraction: ; --tw-ring-inset: ; --tw-ring-offset-width: 0px; --tw-ring-offset-color: #fff; --tw-ring-color: rgb(59 130 246 / 0.5); --tw-ring-offset-shadow: 0 0 #0000; --tw-ring-shadow: 0 0 #0000; --tw-shadow: 0 0 #0000; --tw-shadow-colored: 0 0 #0000; --tw-blur: ; --tw-brightness: ; --tw-contrast: ; --tw-grayscale: ; --tw-hue-rotate: ; --tw-invert: ; --tw-saturate: ; --tw-sepia: ; --tw-drop-shadow: ; --tw-backdrop-blur: ; --tw-backdrop-brightness: ; --tw-backdrop-contrast: ; --tw-backdrop-grayscale: ; --tw-backdrop-hue-rotate: ; --tw-backdrop-invert: ; --tw-backdrop-opacity: ; --tw-backdrop-saturate: ; --tw-backdrop-sepia: ;&quot;&gt;&lt;span style=&quot;&quot;&gt;KSK - Key Signing Key&lt;/span&gt;" style="whiteSpace=wrap;html=1;aspect=fixed;align=left;fontFamily=Times New Roman;fontStyle=1" parent="1" vertex="1">
          <mxGeometry x="24" y="71" width="150" height="150" as="geometry" />
        </mxCell>
        <mxCell id="03DhXbHCtmCu_sxHWPTh-98" value="&lt;h1 style=&quot;--tw-border-spacing-x: 0; --tw-border-spacing-y: 0; --tw-translate-x: 0; --tw-translate-y: 0; --tw-rotate: 0; --tw-skew-x: 0; --tw-skew-y: 0; --tw-scale-x: 1; --tw-scale-y: 1; --tw-pan-x: ; --tw-pan-y: ; --tw-pinch-zoom: ; --tw-scroll-snap-strictness: proximity; --tw-ordinal: ; --tw-slashed-zero: ; --tw-numeric-figure: ; --tw-numeric-spacing: ; --tw-numeric-fraction: ; --tw-ring-inset: ; --tw-ring-offset-width: 0px; --tw-ring-offset-color: #fff; --tw-ring-color: rgb(59 130 246 / 0.5); --tw-ring-offset-shadow: 0 0 #0000; --tw-ring-shadow: 0 0 #0000; --tw-shadow: 0 0 #0000; --tw-shadow-colored: 0 0 #0000; --tw-blur: ; --tw-brightness: ; --tw-contrast: ; --tw-grayscale: ; --tw-hue-rotate: ; --tw-invert: ; --tw-saturate: ; --tw-sepia: ; --tw-drop-shadow: ; --tw-backdrop-blur: ; --tw-backdrop-brightness: ; --tw-backdrop-contrast: ; --tw-backdrop-grayscale: ; --tw-backdrop-hue-rotate: ; --tw-backdrop-invert: ; --tw-backdrop-opacity: ; --tw-backdrop-saturate: ; --tw-backdrop-sepia: ; font-size: 23px;&quot;&gt;Finite State Machine Diagram&lt;/h1&gt;" style="text;html=1;align=center;verticalAlign=middle;resizable=0;points=[];autosize=1;strokeColor=none;fillColor=none;fontStyle=5;fontSize=23;fontFamily=Times New Roman;" parent="1" vertex="1">
          <mxGeometry x="234" y="31" width="320" height="70" as="geometry" />
        </mxCell>
      </root>
    </mxGraphModel>
  </diagram>
  <diagram id="T3ibRVjWJjG4z2k2_zm5" name="Page-2">
    <mxGraphModel dx="1259" dy="701" grid="1" gridSize="10" guides="1" tooltips="1" connect="1" arrows="1" fold="1" page="1" pageScale="1" pageWidth="827" pageHeight="1169" math="0" shadow="0">
      <root>
        <mxCell id="0" />
        <mxCell id="1" parent="0" />
        <mxCell id="091y85yshSIN2xYqOFV_-1" value="Query State" style="rounded=1;whiteSpace=wrap;html=1;" parent="1" vertex="1">
          <mxGeometry x="340" y="110" width="120" height="60" as="geometry" />
        </mxCell>
        <mxCell id="091y85yshSIN2xYqOFV_-3" value="DNSCrypt Initialization" style="rounded=1;whiteSpace=wrap;html=1;" parent="1" vertex="1">
          <mxGeometry x="500" y="190" width="120" height="60" as="geometry" />
        </mxCell>
        <mxCell id="091y85yshSIN2xYqOFV_-4" value="Error" style="rounded=1;whiteSpace=wrap;html=1;" parent="1" vertex="1">
          <mxGeometry x="700" y="190" width="120" height="60" as="geometry" />
        </mxCell>
        <mxCell id="091y85yshSIN2xYqOFV_-5" value="DNSCRYPT Secure&amp;nbsp;&lt;br&gt;State" style="rounded=1;whiteSpace=wrap;html=1;" parent="1" vertex="1">
          <mxGeometry x="500" y="310" width="120" height="60" as="geometry" />
        </mxCell>
        <mxCell id="091y85yshSIN2xYqOFV_-6" value="Resolver Initialization State" style="rounded=1;whiteSpace=wrap;html=1;" parent="1" vertex="1">
          <mxGeometry x="270" y="310" width="120" height="60" as="geometry" />
        </mxCell>
        <mxCell id="091y85yshSIN2xYqOFV_-7" value="DNS Resolver Query State" style="rounded=1;whiteSpace=wrap;html=1;" parent="1" vertex="1">
          <mxGeometry x="270" y="450" width="120" height="60" as="geometry" />
        </mxCell>
        <mxCell id="091y85yshSIN2xYqOFV_-8" value="DNS Resolver Response State" style="rounded=1;whiteSpace=wrap;html=1;" parent="1" vertex="1">
          <mxGeometry x="130" y="370" width="120" height="60" as="geometry" />
        </mxCell>
        <mxCell id="091y85yshSIN2xYqOFV_-9" value="Error" style="rounded=1;whiteSpace=wrap;html=1;" parent="1" vertex="1">
          <mxGeometry x="40" y="560" width="120" height="60" as="geometry" />
        </mxCell>
        <mxCell id="091y85yshSIN2xYqOFV_-10" value="DNSSEC&lt;br&gt;Initialization" style="rounded=1;whiteSpace=wrap;html=1;" parent="1" vertex="1">
          <mxGeometry x="271" y="560" width="120" height="60" as="geometry" />
        </mxCell>
        <mxCell id="091y85yshSIN2xYqOFV_-12" value="DNSSEC&lt;br&gt;Secure State" style="rounded=1;whiteSpace=wrap;html=1;" parent="1" vertex="1">
          <mxGeometry x="400" y="660" width="120" height="60" as="geometry" />
        </mxCell>
        <mxCell id="091y85yshSIN2xYqOFV_-13" value="Client Intitalization" style="rounded=1;whiteSpace=wrap;html=1;" parent="1" vertex="1">
          <mxGeometry x="340" y="10" width="120" height="60" as="geometry" />
        </mxCell>
        <mxCell id="091y85yshSIN2xYqOFV_-14" value="" style="endArrow=classic;html=1;rounded=0;exitX=1;exitY=0.5;exitDx=0;exitDy=0;entryX=0;entryY=0.5;entryDx=0;entryDy=0;" parent="1" source="091y85yshSIN2xYqOFV_-1" target="091y85yshSIN2xYqOFV_-3" edge="1">
          <mxGeometry width="50" height="50" relative="1" as="geometry">
            <mxPoint x="390" y="370" as="sourcePoint" />
            <mxPoint x="440" y="320" as="targetPoint" />
          </mxGeometry>
        </mxCell>
        <mxCell id="091y85yshSIN2xYqOFV_-19" value="DNS Query State" style="edgeLabel;html=1;align=center;verticalAlign=middle;resizable=0;points=[];" parent="091y85yshSIN2xYqOFV_-14" vertex="1" connectable="0">
          <mxGeometry x="-0.2562" y="4" relative="1" as="geometry">
            <mxPoint x="12" y="12" as="offset" />
          </mxGeometry>
        </mxCell>
        <mxCell id="091y85yshSIN2xYqOFV_-15" value="" style="endArrow=classic;html=1;rounded=0;exitX=1;exitY=0.5;exitDx=0;exitDy=0;entryX=0;entryY=0.5;entryDx=0;entryDy=0;" parent="1" source="091y85yshSIN2xYqOFV_-3" target="091y85yshSIN2xYqOFV_-4" edge="1">
          <mxGeometry width="50" height="50" relative="1" as="geometry">
            <mxPoint x="630" y="220" as="sourcePoint" />
            <mxPoint x="440" y="320" as="targetPoint" />
          </mxGeometry>
        </mxCell>
        <mxCell id="091y85yshSIN2xYqOFV_-16" value="" style="curved=1;endArrow=classic;html=1;rounded=0;exitX=0.364;exitY=0.977;exitDx=0;exitDy=0;entryX=1;entryY=0.75;entryDx=0;entryDy=0;exitPerimeter=0;" parent="1" source="091y85yshSIN2xYqOFV_-4" target="091y85yshSIN2xYqOFV_-6" edge="1">
          <mxGeometry width="50" height="50" relative="1" as="geometry">
            <mxPoint x="790.9999999999998" y="188" as="sourcePoint" />
            <mxPoint x="491" y="123" as="targetPoint" />
            <Array as="points">
              <mxPoint x="580" y="650" />
            </Array>
          </mxGeometry>
        </mxCell>
        <mxCell id="091y85yshSIN2xYqOFV_-18" value="Failed to enbaled" style="edgeLabel;html=1;align=center;verticalAlign=middle;resizable=0;points=[];" parent="091y85yshSIN2xYqOFV_-16" vertex="1" connectable="0">
          <mxGeometry x="0.1588" y="17" relative="1" as="geometry">
            <mxPoint x="-24" y="-152" as="offset" />
          </mxGeometry>
        </mxCell>
        <mxCell id="091y85yshSIN2xYqOFV_-17" value="" style="endArrow=classic;html=1;rounded=0;exitX=0.5;exitY=1;exitDx=0;exitDy=0;entryX=0.5;entryY=0;entryDx=0;entryDy=0;" parent="1" source="091y85yshSIN2xYqOFV_-3" target="091y85yshSIN2xYqOFV_-5" edge="1">
          <mxGeometry width="50" height="50" relative="1" as="geometry">
            <mxPoint x="390" y="370" as="sourcePoint" />
            <mxPoint x="440" y="320" as="targetPoint" />
          </mxGeometry>
        </mxCell>
        <mxCell id="091y85yshSIN2xYqOFV_-20" value="" style="endArrow=classic;html=1;rounded=0;exitX=0;exitY=0.5;exitDx=0;exitDy=0;entryX=1;entryY=0.5;entryDx=0;entryDy=0;" parent="1" source="091y85yshSIN2xYqOFV_-5" target="091y85yshSIN2xYqOFV_-6" edge="1">
          <mxGeometry width="50" height="50" relative="1" as="geometry">
            <mxPoint x="390" y="370" as="sourcePoint" />
            <mxPoint x="440" y="320" as="targetPoint" />
          </mxGeometry>
        </mxCell>
        <mxCell id="091y85yshSIN2xYqOFV_-22" value="" style="endArrow=classic;html=1;rounded=0;exitX=0.5;exitY=1;exitDx=0;exitDy=0;entryX=0.5;entryY=0;entryDx=0;entryDy=0;" parent="1" source="091y85yshSIN2xYqOFV_-6" target="091y85yshSIN2xYqOFV_-7" edge="1">
          <mxGeometry width="50" height="50" relative="1" as="geometry">
            <mxPoint x="390" y="370" as="sourcePoint" />
            <mxPoint x="440" y="320" as="targetPoint" />
          </mxGeometry>
        </mxCell>
        <mxCell id="091y85yshSIN2xYqOFV_-23" value="" style="endArrow=classic;html=1;rounded=0;exitX=0.5;exitY=1;exitDx=0;exitDy=0;entryX=0.5;entryY=0;entryDx=0;entryDy=0;" parent="1" source="091y85yshSIN2xYqOFV_-7" target="091y85yshSIN2xYqOFV_-10" edge="1">
          <mxGeometry width="50" height="50" relative="1" as="geometry">
            <mxPoint x="390" y="470" as="sourcePoint" />
            <mxPoint x="440" y="420" as="targetPoint" />
          </mxGeometry>
        </mxCell>
        <mxCell id="091y85yshSIN2xYqOFV_-25" value="" style="endArrow=classic;html=1;rounded=0;exitX=0;exitY=0.5;exitDx=0;exitDy=0;entryX=1;entryY=0.5;entryDx=0;entryDy=0;" parent="1" source="091y85yshSIN2xYqOFV_-10" target="091y85yshSIN2xYqOFV_-9" edge="1">
          <mxGeometry width="50" height="50" relative="1" as="geometry">
            <mxPoint x="390" y="470" as="sourcePoint" />
            <mxPoint x="440" y="420" as="targetPoint" />
          </mxGeometry>
        </mxCell>
        <mxCell id="091y85yshSIN2xYqOFV_-27" value="" style="curved=1;endArrow=classic;html=1;rounded=0;exitX=1;exitY=0.5;exitDx=0;exitDy=0;entryX=0.5;entryY=1;entryDx=0;entryDy=0;" parent="1" source="091y85yshSIN2xYqOFV_-10" target="091y85yshSIN2xYqOFV_-4" edge="1">
          <mxGeometry width="50" height="50" relative="1" as="geometry">
            <mxPoint x="476.44000000000005" y="546.76" as="sourcePoint" />
            <mxPoint x="643.5600000000002" y="463.8800000000001" as="targetPoint" />
            <Array as="points">
              <mxPoint x="770" y="530" />
            </Array>
          </mxGeometry>
        </mxCell>
        <mxCell id="091y85yshSIN2xYqOFV_-28" value="Failed to Initialize&lt;br&gt;Invalid Signature&lt;br&gt;Verification failed" style="edgeLabel;html=1;align=center;verticalAlign=middle;resizable=0;points=[];" parent="091y85yshSIN2xYqOFV_-27" vertex="1" connectable="0">
          <mxGeometry x="-0.1278" y="48" relative="1" as="geometry">
            <mxPoint x="54" y="22" as="offset" />
          </mxGeometry>
        </mxCell>
      </root>
    </mxGraphModel>
  </diagram>
  <diagram id="zXU6AeMc6SxTXsnyuGM4" name="Page-3">
    <mxGraphModel dx="296" dy="165" grid="1" gridSize="10" guides="1" tooltips="1" connect="1" arrows="1" fold="1" page="1" pageScale="1" pageWidth="827" pageHeight="1169" math="0" shadow="0">
      <root>
        <mxCell id="0" />
        <mxCell id="1" parent="0" />
        <mxCell id="lzzL2BgvHQojJLPWUeVT-77" value="&lt;h1 style=&quot;--tw-border-spacing-x: 0; --tw-border-spacing-y: 0; --tw-translate-x: 0; --tw-translate-y: 0; --tw-rotate: 0; --tw-skew-x: 0; --tw-skew-y: 0; --tw-scale-x: 1; --tw-scale-y: 1; --tw-pan-x: ; --tw-pan-y: ; --tw-pinch-zoom: ; --tw-scroll-snap-strictness: proximity; --tw-ordinal: ; --tw-slashed-zero: ; --tw-numeric-figure: ; --tw-numeric-spacing: ; --tw-numeric-fraction: ; --tw-ring-inset: ; --tw-ring-offset-width: 0px; --tw-ring-offset-color: #fff; --tw-ring-color: rgb(59 130 246 / 0.5); --tw-ring-offset-shadow: 0 0 #0000; --tw-ring-shadow: 0 0 #0000; --tw-shadow: 0 0 #0000; --tw-shadow-colored: 0 0 #0000; --tw-blur: ; --tw-brightness: ; --tw-contrast: ; --tw-grayscale: ; --tw-hue-rotate: ; --tw-invert: ; --tw-saturate: ; --tw-sepia: ; --tw-drop-shadow: ; --tw-backdrop-blur: ; --tw-backdrop-brightness: ; --tw-backdrop-contrast: ; --tw-backdrop-grayscale: ; --tw-backdrop-hue-rotate: ; --tw-backdrop-invert: ; --tw-backdrop-opacity: ; --tw-backdrop-saturate: ; --tw-backdrop-sepia: ; font-size: 23px;&quot;&gt;Finite State Machine Diagram&lt;/h1&gt;" style="text;html=1;align=center;verticalAlign=middle;resizable=0;points=[];autosize=1;strokeColor=none;fillColor=none;fontStyle=5;fontSize=23;fontFamily=Times New Roman;" parent="1" vertex="1">
          <mxGeometry x="234" y="31" width="320" height="70" as="geometry" />
        </mxCell>
        <mxCell id="GkUZFA4UjeNXX3hrcqok-2" value="Secure State" style="rounded=1;whiteSpace=wrap;html=1;" parent="1" vertex="1">
          <mxGeometry x="314.5" y="368" width="105" height="30" as="geometry" />
        </mxCell>
        <mxCell id="0EusrMbN8l81rriXg_XL-2" value="&amp;nbsp;Initialization" style="rounded=1;whiteSpace=wrap;html=1;" parent="1" vertex="1">
          <mxGeometry x="313.5" y="431" width="105" height="30" as="geometry" />
        </mxCell>
        <mxCell id="0EusrMbN8l81rriXg_XL-3" value="Query State" style="rounded=1;whiteSpace=wrap;html=1;" parent="1" vertex="1">
          <mxGeometry x="313.5" y="504" width="105" height="30" as="geometry" />
        </mxCell>
        <mxCell id="0EusrMbN8l81rriXg_XL-4" value="" style="endArrow=classic;html=1;rounded=0;exitX=0.306;exitY=0.033;exitDx=0;exitDy=0;entryX=0.25;entryY=1;entryDx=0;entryDy=0;exitPerimeter=0;" parent="1" source="9_gd8rZSP5GRqg78P2U7-1" target="0EusrMbN8l81rriXg_XL-3" edge="1">
          <mxGeometry width="50" height="50" relative="1" as="geometry">
            <mxPoint x="253.5" y="590" as="sourcePoint" />
            <mxPoint x="698" y="450" as="targetPoint" />
          </mxGeometry>
        </mxCell>
        <mxCell id="5YGqc_gMJ1LHvYg_kgpr-14" value="&lt;font face=&quot;Times New Roman&quot;&gt;Provide DNS Query&lt;/font&gt;" style="edgeLabel;html=1;align=center;verticalAlign=middle;resizable=0;points=[];labelBackgroundColor=none;fontStyle=1" parent="0EusrMbN8l81rriXg_XL-4" vertex="1" connectable="0">
          <mxGeometry x="-0.3497" relative="1" as="geometry">
            <mxPoint x="51" y="-2" as="offset" />
          </mxGeometry>
        </mxCell>
        <mxCell id="0EusrMbN8l81rriXg_XL-6" value="" style="endArrow=classic;html=1;rounded=0;exitX=0.25;exitY=0;exitDx=0;exitDy=0;entryX=0.25;entryY=1;entryDx=0;entryDy=0;" parent="1" source="0EusrMbN8l81rriXg_XL-3" target="0EusrMbN8l81rriXg_XL-2" edge="1">
          <mxGeometry width="50" height="50" relative="1" as="geometry">
            <mxPoint x="648" y="500" as="sourcePoint" />
            <mxPoint x="698" y="450" as="targetPoint" />
          </mxGeometry>
        </mxCell>
        <mxCell id="5YGqc_gMJ1LHvYg_kgpr-15" value="Initialize and Send request" style="edgeLabel;html=1;align=center;verticalAlign=middle;resizable=0;points=[];labelBackgroundColor=none;fontStyle=1;fontSize=11;fontFamily=Times New Roman;" parent="0EusrMbN8l81rriXg_XL-6" vertex="1" connectable="0">
          <mxGeometry x="-0.2746" y="-1" relative="1" as="geometry">
            <mxPoint x="66" as="offset" />
          </mxGeometry>
        </mxCell>
        <mxCell id="0EusrMbN8l81rriXg_XL-7" value="" style="endArrow=classic;html=1;rounded=0;exitX=0.25;exitY=0;exitDx=0;exitDy=0;entryX=0.25;entryY=1;entryDx=0;entryDy=0;labelBackgroundColor=none;" parent="1" source="0EusrMbN8l81rriXg_XL-2" target="GkUZFA4UjeNXX3hrcqok-2" edge="1">
          <mxGeometry width="50" height="50" relative="1" as="geometry">
            <mxPoint x="648" y="500" as="sourcePoint" />
            <mxPoint x="698" y="450" as="targetPoint" />
          </mxGeometry>
        </mxCell>
        <mxCell id="5YGqc_gMJ1LHvYg_kgpr-16" value="Encrypt(DNSCrypt)" style="edgeLabel;html=1;align=center;verticalAlign=middle;resizable=0;points=[];labelBackgroundColor=none;fontSize=11;fontFamily=Times New Roman;fontStyle=1" parent="0EusrMbN8l81rriXg_XL-7" vertex="1" connectable="0">
          <mxGeometry x="-0.3025" relative="1" as="geometry">
            <mxPoint x="63" as="offset" />
          </mxGeometry>
        </mxCell>
        <mxCell id="T5_4PwXSs1bFL72SKFSU-2" value="" style="endArrow=classic;html=1;rounded=0;entryX=1;entryY=0.25;entryDx=0;entryDy=0;exitX=0;exitY=0.5;exitDx=0;exitDy=0;" parent="1" source="GkUZFA4UjeNXX3hrcqok-2" target="5YGqc_gMJ1LHvYg_kgpr-1" edge="1">
          <mxGeometry width="50" height="50" relative="1" as="geometry">
            <mxPoint x="253" y="385" as="sourcePoint" />
            <mxPoint x="233" y="386" as="targetPoint" />
          </mxGeometry>
        </mxCell>
        <mxCell id="5YGqc_gMJ1LHvYg_kgpr-4" value="Decryption&amp;nbsp;Failure&lt;br&gt;and&lt;br&gt;&lt;span style=&quot;text-align: left;&quot;&gt;Key creation failure,&lt;/span&gt;&lt;br style=&quot;--tw-border-spacing-x: 0; --tw-border-spacing-y: 0; --tw-translate-x: 0; --tw-translate-y: 0; --tw-rotate: 0; --tw-skew-x: 0; --tw-skew-y: 0; --tw-scale-x: 1; --tw-scale-y: 1; --tw-pan-x: ; --tw-pan-y: ; --tw-pinch-zoom: ; --tw-scroll-snap-strictness: proximity; --tw-ordinal: ; --tw-slashed-zero: ; --tw-numeric-figure: ; --tw-numeric-spacing: ; --tw-numeric-fraction: ; --tw-ring-inset: ; --tw-ring-offset-width: 0px; --tw-ring-offset-color: #fff; --tw-ring-color: rgb(59 130 246 / 0.5); --tw-ring-offset-shadow: 0 0 #0000; --tw-ring-shadow: 0 0 #0000; --tw-shadow: 0 0 #0000; --tw-shadow-colored: 0 0 #0000; --tw-blur: ; --tw-brightness: ; --tw-contrast: ; --tw-grayscale: ; --tw-hue-rotate: ; --tw-invert: ; --tw-saturate: ; --tw-sepia: ; --tw-drop-shadow: ; --tw-backdrop-blur: ; --tw-backdrop-brightness: ; --tw-backdrop-contrast: ; --tw-backdrop-grayscale: ; --tw-backdrop-hue-rotate: ; --tw-backdrop-invert: ; --tw-backdrop-opacity: ; --tw-backdrop-saturate: ; --tw-backdrop-sepia: ; text-align: left;&quot;&gt;&lt;span style=&quot;text-align: left;&quot;&gt;&amp;nbsp;invalid signature&lt;/span&gt;&lt;span style=&quot;font-size: 12px;&quot;&gt;&lt;br&gt;&lt;/span&gt;" style="edgeLabel;html=1;align=center;verticalAlign=middle;resizable=0;points=[];labelBackgroundColor=none;fontFamily=Times New Roman;fontStyle=1" parent="T5_4PwXSs1bFL72SKFSU-2" vertex="1" connectable="0">
          <mxGeometry x="0.3933" y="-1" relative="1" as="geometry">
            <mxPoint x="24" y="-32" as="offset" />
          </mxGeometry>
        </mxCell>
        <mxCell id="T5_4PwXSs1bFL72SKFSU-4" value="" style="endArrow=classic;html=1;rounded=0;exitX=0.25;exitY=0;exitDx=0;exitDy=0;entryX=0;entryY=0.25;entryDx=0;entryDy=0;" parent="1" source="SlM1ylqC0Z30-eAk__RC-10" target="bOOCeMlZ9bCtK7jNqYvb-2" edge="1">
          <mxGeometry width="50" height="50" relative="1" as="geometry">
            <mxPoint x="292.75" y="304" as="sourcePoint" />
            <mxPoint x="540" y="257.5" as="targetPoint" />
            <Array as="points">
              <mxPoint x="340" y="250" />
            </Array>
          </mxGeometry>
        </mxCell>
        <mxCell id="5YGqc_gMJ1LHvYg_kgpr-18" value="&lt;font style=&quot;font-size: 10px;&quot;&gt;Forward DNS query&lt;/font&gt;" style="edgeLabel;html=1;align=center;verticalAlign=middle;resizable=0;points=[];labelBackgroundColor=none;fontStyle=1;fontFamily=Times New Roman;" parent="T5_4PwXSs1bFL72SKFSU-4" vertex="1" connectable="0">
          <mxGeometry x="-0.6798" relative="1" as="geometry">
            <mxPoint x="103" y="-10" as="offset" />
          </mxGeometry>
        </mxCell>
        <mxCell id="bOOCeMlZ9bCtK7jNqYvb-2" value="Delagate State" style="rounded=1;whiteSpace=wrap;html=1;" parent="1" vertex="1">
          <mxGeometry x="602" y="240" width="105" height="40" as="geometry" />
        </mxCell>
        <mxCell id="bOOCeMlZ9bCtK7jNqYvb-5" value="" style="endArrow=classic;html=1;rounded=0;exitX=0.25;exitY=0;exitDx=0;exitDy=0;entryX=0.25;entryY=0;entryDx=0;entryDy=0;" parent="1" source="bOOCeMlZ9bCtK7jNqYvb-2" target="5YGqc_gMJ1LHvYg_kgpr-1" edge="1">
          <mxGeometry width="50" height="50" relative="1" as="geometry">
            <mxPoint x="675" y="250" as="sourcePoint" />
            <mxPoint x="875" y="290" as="targetPoint" />
            <Array as="points">
              <mxPoint x="628" y="200" />
              <mxPoint x="78" y="200" />
            </Array>
          </mxGeometry>
        </mxCell>
        <mxCell id="5YGqc_gMJ1LHvYg_kgpr-9" value="DNS servers unreachable" style="edgeLabel;html=1;align=center;verticalAlign=middle;resizable=0;points=[];labelBackgroundColor=none;fontFamily=Times New Roman;fontStyle=1" parent="bOOCeMlZ9bCtK7jNqYvb-5" vertex="1" connectable="0">
          <mxGeometry x="-0.2163" y="-2" relative="1" as="geometry">
            <mxPoint x="-58" y="-8" as="offset" />
          </mxGeometry>
        </mxCell>
        <mxCell id="SlM1ylqC0Z30-eAk__RC-3" value="Resolution State" style="rounded=1;whiteSpace=wrap;html=1;" parent="1" vertex="1">
          <mxGeometry x="602" y="372" width="105" height="30" as="geometry" />
        </mxCell>
        <mxCell id="SlM1ylqC0Z30-eAk__RC-5" style="edgeStyle=orthogonalEdgeStyle;rounded=0;orthogonalLoop=1;jettySize=auto;html=1;exitX=0.5;exitY=1;exitDx=0;exitDy=0;" parent="1" source="SlM1ylqC0Z30-eAk__RC-3" target="SlM1ylqC0Z30-eAk__RC-3" edge="1">
          <mxGeometry relative="1" as="geometry" />
        </mxCell>
        <mxCell id="SlM1ylqC0Z30-eAk__RC-7" value="" style="endArrow=classic;html=1;rounded=0;exitX=0.5;exitY=1;exitDx=0;exitDy=0;entryX=0.5;entryY=0;entryDx=0;entryDy=0;" parent="1" source="bOOCeMlZ9bCtK7jNqYvb-2" target="SlM1ylqC0Z30-eAk__RC-3" edge="1">
          <mxGeometry width="50" height="50" relative="1" as="geometry">
            <mxPoint x="566.25" y="280" as="sourcePoint" />
            <mxPoint x="623" y="380" as="targetPoint" />
          </mxGeometry>
        </mxCell>
        <mxCell id="5YGqc_gMJ1LHvYg_kgpr-26" value="Resolve DNS Query" style="edgeLabel;html=1;align=center;verticalAlign=middle;resizable=0;points=[];fontFamily=Times New Roman;fontStyle=1" parent="SlM1ylqC0Z30-eAk__RC-7" vertex="1" connectable="0">
          <mxGeometry x="-0.1554" y="-1" relative="1" as="geometry">
            <mxPoint x="51" y="3" as="offset" />
          </mxGeometry>
        </mxCell>
        <mxCell id="SlM1ylqC0Z30-eAk__RC-8" value="" style="endArrow=classic;html=1;rounded=0;exitX=0.75;exitY=1;exitDx=0;exitDy=0;entryX=1;entryY=0.5;entryDx=0;entryDy=0;" parent="1" source="SlM1ylqC0Z30-eAk__RC-3" target="9_gd8rZSP5GRqg78P2U7-1" edge="1">
          <mxGeometry width="50" height="50" relative="1" as="geometry">
            <mxPoint x="553" y="540" as="sourcePoint" />
            <mxPoint x="436" y="600" as="targetPoint" />
            <Array as="points">
              <mxPoint x="683" y="600" />
            </Array>
          </mxGeometry>
        </mxCell>
        <mxCell id="5YGqc_gMJ1LHvYg_kgpr-22" value="&lt;b&gt;&lt;font face=&quot;Times New Roman&quot;&gt;DNS Response&lt;/font&gt;&lt;/b&gt;" style="edgeLabel;html=1;align=center;verticalAlign=middle;resizable=0;points=[];labelBackgroundColor=none;" parent="SlM1ylqC0Z30-eAk__RC-8" vertex="1" connectable="0">
          <mxGeometry x="-0.5502" relative="1" as="geometry">
            <mxPoint x="-37" y="17" as="offset" />
          </mxGeometry>
        </mxCell>
        <mxCell id="SlM1ylqC0Z30-eAk__RC-9" value="" style="endArrow=classic;html=1;rounded=0;exitX=0.5;exitY=1;exitDx=0;exitDy=0;entryX=0;entryY=0.5;entryDx=0;entryDy=0;" parent="1" source="5YGqc_gMJ1LHvYg_kgpr-1" target="9_gd8rZSP5GRqg78P2U7-1" edge="1">
          <mxGeometry width="50" height="50" relative="1" as="geometry">
            <mxPoint x="113" y="430" as="sourcePoint" />
            <mxPoint x="236" y="625" as="targetPoint" />
            <Array as="points">
              <mxPoint x="100" y="600" />
            </Array>
          </mxGeometry>
        </mxCell>
        <mxCell id="SlM1ylqC0Z30-eAk__RC-10" value="Forward State" style="rounded=1;whiteSpace=wrap;html=1;" parent="1" vertex="1">
          <mxGeometry x="314" y="296" width="105" height="30" as="geometry" />
        </mxCell>
        <mxCell id="SlM1ylqC0Z30-eAk__RC-12" value="" style="endArrow=classic;html=1;rounded=0;entryX=0.25;entryY=1;entryDx=0;entryDy=0;exitX=0.25;exitY=0;exitDx=0;exitDy=0;" parent="1" source="GkUZFA4UjeNXX3hrcqok-2" target="SlM1ylqC0Z30-eAk__RC-10" edge="1">
          <mxGeometry width="50" height="50" relative="1" as="geometry">
            <mxPoint x="292" y="360" as="sourcePoint" />
            <mxPoint x="343" y="380" as="targetPoint" />
          </mxGeometry>
        </mxCell>
        <mxCell id="5YGqc_gMJ1LHvYg_kgpr-17" value="decrypt()" style="edgeLabel;html=1;align=center;verticalAlign=middle;resizable=0;points=[];labelBackgroundColor=none;fontStyle=1;fontFamily=Times New Roman;" parent="SlM1ylqC0Z30-eAk__RC-12" vertex="1" connectable="0">
          <mxGeometry x="-0.1686" y="-1" relative="1" as="geometry">
            <mxPoint x="-28" y="3" as="offset" />
          </mxGeometry>
        </mxCell>
        <mxCell id="SlM1ylqC0Z30-eAk__RC-15" value="" style="endArrow=classic;html=1;rounded=0;exitX=1;exitY=0.5;exitDx=0;exitDy=0;entryX=0.25;entryY=1;entryDx=0;entryDy=0;" parent="1" source="SlM1ylqC0Z30-eAk__RC-3" target="5YGqc_gMJ1LHvYg_kgpr-1" edge="1">
          <mxGeometry width="50" height="50" relative="1" as="geometry">
            <mxPoint x="513" y="480" as="sourcePoint" />
            <mxPoint x="766" y="690" as="targetPoint" />
            <Array as="points">
              <mxPoint x="766" y="387" />
              <mxPoint x="766" y="680" />
              <mxPoint x="78" y="680" />
            </Array>
          </mxGeometry>
        </mxCell>
        <mxCell id="5YGqc_gMJ1LHvYg_kgpr-13" value="Timeout error" style="edgeLabel;html=1;align=center;verticalAlign=middle;resizable=0;points=[];labelBackgroundColor=none;fontFamily=Times New Roman;fontStyle=1" parent="SlM1ylqC0Z30-eAk__RC-15" vertex="1" connectable="0">
          <mxGeometry x="-0.7689" y="3" relative="1" as="geometry">
            <mxPoint x="-316" y="192" as="offset" />
          </mxGeometry>
        </mxCell>
        <mxCell id="PoofYBCxLqeOEYdu7oGA-2" value="" style="endArrow=classic;html=1;rounded=0;exitX=0;exitY=0.75;exitDx=0;exitDy=0;entryX=0.75;entryY=0;entryDx=0;entryDy=0;" parent="1" source="bOOCeMlZ9bCtK7jNqYvb-2" target="SlM1ylqC0Z30-eAk__RC-10" edge="1">
          <mxGeometry width="50" height="50" relative="1" as="geometry">
            <mxPoint x="540" y="272.5" as="sourcePoint" />
            <mxPoint x="333" y="480" as="targetPoint" />
            <Array as="points">
              <mxPoint x="393" y="270" />
            </Array>
          </mxGeometry>
        </mxCell>
        <mxCell id="5YGqc_gMJ1LHvYg_kgpr-20" value="return() and delegate" style="edgeLabel;html=1;align=center;verticalAlign=middle;resizable=0;points=[];fontFamily=Times New Roman;fontStyle=1;labelBackgroundColor=none;" parent="PoofYBCxLqeOEYdu7oGA-2" vertex="1" connectable="0">
          <mxGeometry x="0.3005" y="-1" relative="1" as="geometry">
            <mxPoint x="52" y="8" as="offset" />
          </mxGeometry>
        </mxCell>
        <mxCell id="5YGqc_gMJ1LHvYg_kgpr-1" value="Error" style="rounded=1;whiteSpace=wrap;html=1;" parent="1" vertex="1">
          <mxGeometry x="55" y="370" width="90" height="50" as="geometry" />
        </mxCell>
        <mxCell id="5YGqc_gMJ1LHvYg_kgpr-6" value="" style="endArrow=classic;html=1;rounded=0;entryX=1;entryY=0.5;entryDx=0;entryDy=0;exitX=0;exitY=0.5;exitDx=0;exitDy=0;" parent="1" source="0EusrMbN8l81rriXg_XL-2" target="5YGqc_gMJ1LHvYg_kgpr-1" edge="1">
          <mxGeometry width="50" height="50" relative="1" as="geometry">
            <mxPoint x="207.5" y="431" as="sourcePoint" />
            <mxPoint x="426" y="330" as="targetPoint" />
            <Array as="points">
              <mxPoint x="206" y="446" />
              <mxPoint x="206" y="395" />
            </Array>
          </mxGeometry>
        </mxCell>
        <mxCell id="5YGqc_gMJ1LHvYg_kgpr-8" value="Initialization failure&lt;br style=&quot;font-size: 10px;&quot;&gt;(DNSCrypt, DNSSEC)" style="edgeLabel;html=1;align=center;verticalAlign=middle;resizable=0;points=[];fontSize=10;labelBackgroundColor=none;" parent="5YGqc_gMJ1LHvYg_kgpr-6" vertex="1" connectable="0">
          <mxGeometry x="0.1541" y="-1" relative="1" as="geometry">
            <mxPoint x="52" as="offset" />
          </mxGeometry>
        </mxCell>
        <mxCell id="5YGqc_gMJ1LHvYg_kgpr-11" value="" style="endArrow=classic;html=1;rounded=0;exitX=0;exitY=0.5;exitDx=0;exitDy=0;entryX=1;entryY=1;entryDx=0;entryDy=0;" parent="1" source="0EusrMbN8l81rriXg_XL-3" target="5YGqc_gMJ1LHvYg_kgpr-1" edge="1">
          <mxGeometry width="50" height="50" relative="1" as="geometry">
            <mxPoint x="426" y="360" as="sourcePoint" />
            <mxPoint x="476" y="310" as="targetPoint" />
            <Array as="points">
              <mxPoint x="145" y="520" />
            </Array>
          </mxGeometry>
        </mxCell>
        <mxCell id="5YGqc_gMJ1LHvYg_kgpr-12" value="Domain name error" style="edgeLabel;html=1;align=center;verticalAlign=middle;resizable=0;points=[];labelBackgroundColor=none;fontStyle=1;fontFamily=Times New Roman;" parent="5YGqc_gMJ1LHvYg_kgpr-11" vertex="1" connectable="0">
          <mxGeometry x="-0.2991" y="-5" relative="1" as="geometry">
            <mxPoint x="9" y="-10" as="offset" />
          </mxGeometry>
        </mxCell>
        <mxCell id="9_gd8rZSP5GRqg78P2U7-1" value="Initial State" style="rounded=1;whiteSpace=wrap;html=1;" parent="1" vertex="1">
          <mxGeometry x="302.25" y="585" width="123.5" height="30" as="geometry" />
        </mxCell>
        <mxCell id="nKKct9SHCI93QYEI3X8c-1" value="" style="endArrow=classic;html=1;rounded=0;exitX=0.75;exitY=1;exitDx=0;exitDy=0;entryX=0.75;entryY=0;entryDx=0;entryDy=0;" edge="1" parent="1" source="SlM1ylqC0Z30-eAk__RC-10" target="GkUZFA4UjeNXX3hrcqok-2">
          <mxGeometry width="50" height="50" relative="1" as="geometry">
            <mxPoint x="344.5" y="337" as="sourcePoint" />
            <mxPoint x="345" y="360" as="targetPoint" />
          </mxGeometry>
        </mxCell>
      </root>
    </mxGraphModel>
  </diagram>
</mxfile>
